<?xml version="1.0" encoding="iso-8859-1"?>
<!-- Uploaded to: SVG Repo, www.svgrepo.com, Generator: SVG Repo Mixer Tools -->
<svg fill="#fff" height="800px" width="800px" version="1.1" id="Layer_1" xmlns="http://www.w3.org/2000/svg" xmlns:xlink="http://www.w3.org/1999/xlink" 
	 viewBox="0 0 512 512" xml:space="preserve">
<g>
	<g>
		<path d="M318.177,258.057h-36.05c-4.664,0-8.444,3.781-8.444,8.444c0,4.663,3.78,8.445,8.444,8.445h40.099
			C319.526,269.492,318.232,263.781,318.177,258.057z"/>
	</g>
</g>
<g>
	<g>
		<path d="M507.988,135.979c0-17.954-13.609-32.511-30.397-32.511h-54.208c-16.787,0-30.397,14.555-30.397,32.511v65.955
			l8.041-3.093l30.28-58.952l-16.549,74.241l-64.569,24.835c-10.332,3.975-15.445,15.555-11.487,25.846
			c3.92,10.193,15.447,15.488,25.846,11.487l74.577-28.684c6.23-2.397,10.879-7.759,12.341-14.315l18.275-81.982l0.923,81.765
			c0.098,8.627-6.915,25.631-24.647,32.452c-1.461,0.562-52.328,20.127-53.647,20.634v199.54c0,13.992,11.343,25.334,25.334,25.334
			c13.992,0,25.334-11.342,25.334-25.334v-182.93h14.421v182.93c0,13.992,11.343,25.334,25.334,25.334
			c13.991,0,25.334-11.342,25.334-25.334C508.131,263.955,507.988,136.639,507.988,135.979z"/>
	</g>
</g>
<g>
	<g>
		<circle cx="450.25" cy="44.995" r="44.995"/>
	</g>
</g>
<g>
	<g>
		<circle cx="159.243" cy="125.852" r="45.039"/>
	</g>
</g>
<g>
	<g>
		<path d="M320.546,288.563h-105.73l34.053-10.952c10.727-3.45,16.627-14.944,13.177-25.672
			c-3.45-10.727-14.943-16.626-25.672-13.177l-4.59,1.476l-21.517-35.596c-2.413-3.99-7.605-5.272-11.596-2.858
			c-3.992,2.413-5.271,7.605-2.858,11.596l19.448,32.172l-33.499,10.774l0.552-35.113c0.298-18.979-14.946-34.57-33.92-34.706
			l-31.431-0.225c-19-0.136-34.464,15.272-34.413,34.262l0.317,115.886c0.043,15.808,10.95,29.629,26.532,33.203H66.457
			l-29.12-148.137c-1.799-9.153-10.678-15.116-19.83-13.315c-9.153,1.799-15.114,10.677-13.315,19.83l31.799,161.769
			c1.521,7.737,8.185,13.35,16.015,13.608l-32.469,84.188c-2.237,5.801,0.651,12.319,6.454,14.556
			c5.8,2.239,12.319-0.65,14.556-6.454l35.584-92.266h71.088l20.346,52.755L158.73,478.5c-4.976,12.574,1.184,26.801,13.758,31.776
			c12.577,4.976,26.802-1.187,31.777-13.758l55.581-140.456c6.35-16.049-5.492-33.494-22.767-33.494c-0.023,0-0.048,0-0.071,0
			c-7.949,0.023-56.878,0.166-82.026,0.239c-14.196,0.041-26.229-10.478-28.042-24.558c-0.002-0.013-0.003-0.027-0.006-0.04
			l-6.209-50.017l19.85,45.039c4.214,9.563,14.97,14.394,24.919,11.195l27.071-8.707c-0.499,1.273-0.782,2.653-0.782,4.103
			c0,6.224,5.052,11.26,11.26,11.26h117.505c6.216,0,11.257-5.041,11.257-11.26C331.805,293.604,326.765,288.563,320.546,288.563z
			 M178.898,371.706l22.118-0.064l-21.225,53.637l-8.444-21.895c9.068-0.295,16.334-7.722,16.334-16.862
			C187.68,380.133,184.13,374.576,178.898,371.706z M170.5,259.95l-16.356-37.112l25.99,34.013L170.5,259.95z"/>
	</g>
</g>
</svg>