<?xml version="1.0" encoding="utf-8"?>
<!-- Generator: Adobe Illustrator 27.5.0, SVG Export Plug-In . SVG Version: 6.00 Build 0)  -->
<svg version="1.1" xmlns="http://www.w3.org/2000/svg" xmlns:xlink="http://www.w3.org/1999/xlink" x="0px" y="0px"
	 viewBox="0 0 3710 3710" style="enable-background:new 0 0 3710 3710;" xml:space="preserve">
<g id="Background">
	<g>
		<g>
			<rect style="fill:#FFFFFF;" width="3710" height="3710"/>
		</g>
	</g>
</g>
<g id="Illustration">
	<g>
		<linearGradient id="SVGID_1_" gradientUnits="userSpaceOnUse" x1="3609.6465" y1="4072.0955" x2="1124.5397" y2="985.7487">
			<stop  offset="0" style="stop-color:#DAE3FE"/>
			<stop  offset="1" style="stop-color:#E9EFFD"/>
		</linearGradient>
		<path style="fill:url(#SVGID_1_);" d="M2926.037,2854.911c-57.085,60.091-111.099,98.843-153.774,129.46
			c-501.636,359.896-1095.204,254.988-1221.354,229.368c-186.284-37.832-546.367-110.96-806.7-417.078
			c-393.863-463.131-332.533-1192.782-27.026-1674.434c55.882-88.102,351.067-577.091,951.028-655.51
			c363.09-47.458,786.336,48.259,1092.84,305.024C3404.429,1310.715,3358.627,2399.536,2926.037,2854.911z"/>
		<g>
			<g>
				<g style="opacity:0.3;">
					<path style="fill:#91B3FA;" d="M2590.22,761.213c-4.115-0.999-6.896-4.967-6.318-9.255c1.26-9.38,2.949-18.844,5.015-28.13
						c1.006-4.518,5.482-7.365,9.999-6.36c0.054,0.013,0.106,0.026,0.159,0.039c4.424,1.074,7.193,5.497,6.2,9.961
						c-1.964,8.822-3.566,17.812-4.765,26.722c-0.616,4.585-4.834,7.805-9.421,7.187
						C2590.793,761.339,2590.503,761.282,2590.22,761.213z M2607.957,690.41c-0.318-0.077-0.636-0.174-0.951-0.291
						c-4.337-1.612-6.548-6.435-4.937-10.773c3.312-8.909,7.037-17.765,11.073-26.319c1.974-4.185,6.946-5.973,11.153-4.006
						c4.185,1.975,5.975,6.97,4.002,11.152c-3.836,8.132-7.374,16.545-10.52,25.012
						C2616.283,689.207,2612.027,691.397,2607.957,690.41z M2640.843,625.273c-0.906-0.22-1.792-0.597-2.617-1.137
						c-3.868-2.539-4.95-7.732-2.414-11.602c5.199-7.933,10.809-15.738,16.674-23.199c2.863-3.636,8.128-4.262,11.765-1.409
						c3.637,2.86,4.268,8.128,1.409,11.765c-5.57,7.085-10.896,14.495-15.834,22.029
						C2647.831,624.766,2644.189,626.085,2640.843,625.273z M2687.478,569.113c-1.498-0.364-2.913-1.145-4.06-2.339
						c-3.205-3.337-3.096-8.642,0.241-11.846c6.849-6.572,14.062-12.928,21.441-18.89c3.599-2.902,8.872-2.343,11.783,1.253
						c2.907,3.598,2.346,8.874-1.253,11.783c-7.008,5.661-13.861,11.697-20.366,17.945
						C2693.12,569.075,2690.167,569.766,2687.478,569.113z M2745.465,524.764c-2.101-0.51-4.004-1.827-5.204-3.826
						c-2.385-3.967-1.102-9.114,2.864-11.496c8.115-4.877,16.554-9.477,25.081-13.666c4.151-2.044,9.174-0.333,11.215,3.823
						c2.04,4.152,0.328,9.173-3.825,11.216c-8.105,3.98-16.126,8.352-23.838,12.987
						C2749.789,524.985,2747.532,525.266,2745.465,524.764z M2811.813,494.349c-2.721-0.66-5.05-2.667-5.99-5.522
						c-1.447-4.396,0.941-9.131,5.335-10.58c9.007-2.967,18.255-5.586,27.484-7.778c4.505-1.069,9.019,1.714,10.089,6.217
						c1.07,4.499-1.713,9.017-6.215,10.087c-8.77,2.085-17.555,4.57-26.114,7.39
						C2814.862,494.671,2813.281,494.705,2811.813,494.349z M3114.874,547.364c-1.128-0.274-2.214-0.786-3.186-1.548
						c-7.086-5.552-14.51-10.869-22.065-15.801c-3.874-2.529-4.965-7.721-2.436-11.593c2.528-3.876,7.72-4.967,11.595-2.437
						c7.957,5.194,15.777,10.793,23.24,16.639c3.643,2.854,4.281,8.121,1.428,11.763
						C3121.358,547.058,3117.968,548.115,3114.874,547.364z M2883.206,479.403c-3.378-0.82-6.02-3.704-6.365-7.357
						c-0.434-4.608,2.948-8.694,7.554-9.129c9.442-0.891,19.038-1.381,28.522-1.458c4.626-0.016,8.41,3.681,8.447,8.31
						c0.037,4.626-3.684,8.408-8.312,8.447c-9.006,0.071-18.118,0.537-27.084,1.383
						C2885.016,479.687,2884.085,479.617,2883.206,479.403z M3052.711,509.116c-0.537-0.13-1.071-0.314-1.591-0.558
						c-8.154-3.827-16.582-7.351-25.047-10.479c-4.34-1.606-6.559-6.424-4.956-10.764c1.605-4.339,6.426-6.58,10.764-4.955
						c8.906,3.293,17.775,7.001,26.356,11.026c4.189,1.966,5.992,6.957,4.026,11.144
						C3060.544,508.198,3056.503,510.036,3052.711,509.116z M2956.147,480.78c-4.109-0.997-6.889-4.955-6.32-9.239
						c0.608-4.588,4.819-7.812,9.407-7.208c9.392,1.245,18.857,2.912,28.129,4.96c0.058,0.011,0.117,0.025,0.174,0.039
						c4.417,1.072,7.186,5.485,6.203,9.945c-0.998,4.52-5.467,7.375-9.987,6.377c-8.809-1.942-17.799-3.524-26.723-4.706
						C2956.731,480.905,2956.435,480.85,2956.147,480.78z"/>
					<path style="fill:#91B3FA;" d="M3157.713,587.688c-1.603-0.389-3.109-1.253-4.287-2.583c-2.864-3.234-5.845-6.46-8.856-9.595
						c-3.207-3.334-3.103-8.64,0.232-11.845c3.335-3.208,8.644-3.109,11.847,0.234c3.169,3.295,6.303,6.689,9.318,10.091
						c3.068,3.462,2.749,8.76-0.713,11.826C3163.119,587.71,3160.289,588.313,3157.713,587.688z"/>
				</g>
				<g style="opacity:0.3;">
					<path style="fill:#91B3FA;" d="M3239.013,829.844c-3.93-0.954-6.697-4.643-6.368-8.803c0.343-4.305,0.6-8.691,0.765-13.033
						c0.176-4.625,4.067-8.231,8.69-8.055c4.643,0.177,8.23,4.068,8.055,8.69c-0.175,4.571-0.445,9.19-0.804,13.724
						c-0.366,4.613-4.403,8.055-9.016,7.69C3239.882,830.021,3239.44,829.947,3239.013,829.844z"/>
					<path style="fill:#91B3FA;" d="M2837.068,1121.467c-3.746-0.909-7.492-1.885-11.235-2.928
						c-4.457-1.243-7.064-5.863-5.823-10.321c1.241-4.457,5.888-7.075,10.32-5.824c8.639,2.406,17.355,4.457,26.007,6.112
						c4.548,0.878,7.524,5.258,6.656,9.802c-0.87,4.548-5.26,7.527-9.804,6.657
						C2847.837,1123.942,2842.413,1122.765,2837.068,1121.467z M2784.133,1103.783c-0.455-0.11-0.908-0.261-1.353-0.453
						c-8.583-3.703-17.105-7.812-25.328-12.211c-4.079-2.182-5.617-7.26-3.436-11.338c2.184-4.08,7.273-5.627,11.341-3.434
						c7.81,4.178,15.906,8.079,24.061,11.601c4.248,1.832,6.206,6.763,4.374,11.009
						C2792.15,1102.761,2788.028,1104.728,2784.133,1103.783z M2896.965,1130.226c-3.839-0.932-6.595-4.486-6.383-8.574
						c0.241-4.623,4.182-8.172,8.804-7.933c8.84,0.461,17.819,0.549,26.693,0.257c4.625-0.144,8.497,3.477,8.648,8.1
						c0.15,4.626-3.477,8.498-8.102,8.649c-9.344,0.306-18.802,0.213-28.111-0.271
						C2897.982,1130.426,2897.464,1130.348,2896.965,1130.226z M2721.703,1068.228c-1.034-0.251-2.034-0.706-2.948-1.369
						c-7.553-5.493-14.962-11.377-22.021-17.484c-3.499-3.028-3.88-8.317-0.853-11.815c3.029-3.502,8.317-3.885,11.818-0.854
						c6.702,5.799,13.738,11.386,20.911,16.602c3.743,2.72,4.569,7.962,1.848,11.703
						C2728.401,1067.839,2724.904,1069.005,2721.703,1068.228z M2968.624,1125.994c-3.149-0.764-5.702-3.33-6.285-6.728
						c-0.783-4.561,2.281-8.893,6.842-9.675c8.719-1.494,17.499-3.385,26.094-5.617c4.479-1.163,9.053,1.523,10.215,6.005
						c1.161,4.478-1.526,9.049-6.004,10.212c-9.049,2.351-18.292,4.341-27.473,5.915
						C2970.852,1126.306,2969.702,1126.256,2968.624,1125.994z M3037.621,1106.14c-2.517-0.611-4.717-2.377-5.779-4.955
						c-1.76-4.28,0.282-9.176,4.562-10.936c8.207-3.377,16.367-7.139,24.253-11.179c4.115-2.117,9.163-0.491,11.278,3.633
						c2.111,4.119,0.483,9.166-3.635,11.279c-8.3,4.253-16.886,8.211-25.523,11.763
						C3041.078,1106.444,3039.281,1106.543,3037.621,1106.14z M3100.648,1071.716c-1.915-0.465-3.673-1.602-4.89-3.345
						c-2.65-3.792-1.722-9.016,2.071-11.665c7.283-5.086,14.429-10.532,21.241-16.193c3.558-2.956,8.838-2.473,11.798,1.091
						c2.955,3.56,2.469,8.84-1.092,11.799c-7.17,5.955-14.691,11.691-22.353,17.042
						C3105.373,1071.876,3102.903,1072.263,3100.648,1071.716z M3154.664,1024.369c-1.326-0.322-2.591-0.972-3.671-1.958
						c-3.415-3.122-3.652-8.42-0.53-11.835c5.991-6.551,11.768-13.431,17.173-20.451c2.823-3.666,8.089-4.348,11.749-1.53
						c3.668,2.823,4.351,8.084,1.528,11.75c-5.693,7.395-11.777,14.641-18.083,21.537
						C3160.693,1024.219,3157.537,1025.067,3154.664,1024.369z M3196.984,966.297c-0.746-0.181-1.479-0.47-2.178-0.869
						c-4.019-2.292-5.419-7.41-3.125-11.427c4.387-7.692,8.504-15.671,12.236-23.723c1.947-4.199,6.939-6.015,11.125-4.077
						c4.199,1.945,6.024,6.928,4.077,11.127c-3.929,8.476-8.263,16.878-12.883,24.974
						C3204.342,965.62,3200.521,967.155,3196.984,966.297z M3225.493,900.391c-0.167-0.041-0.334-0.088-0.5-0.138
						c-4.421-1.363-6.902-6.053-5.538-10.474c1.924-6.242,3.678-12.616,5.215-18.951c0.556-2.293,1.085-4.589,1.589-6.882
						c0.994-4.521,5.464-7.38,9.982-6.384c4.595,0.917,7.377,5.461,6.385,9.979c-0.53,2.414-1.087,4.825-1.672,7.239
						c-1.617,6.663-3.463,13.372-5.488,19.936C3234.156,898.97,3229.763,901.427,3225.493,900.391z"/>
					<path style="fill:#91B3FA;" d="M2668.507,1019.644c-1.619-0.393-3.135-1.269-4.317-2.614c-2.991-3.41-5.967-6.948-8.845-10.515
						c-2.906-3.602-2.342-8.877,1.259-11.781c3.603-2.904,8.874-2.346,11.781,1.259c2.734,3.388,5.561,6.748,8.4,9.986
						c3.052,3.475,2.707,8.769-0.772,11.822C2673.881,1019.672,2671.067,1020.266,2668.507,1019.644z"/>
				</g>
				<g>
					<path style="fill:#91B3FA;" d="M2702.41,927.871c0.721,1.507,2.319,2.391,3.979,2.2l47.349-5.437
						c13.934,17.356,30.736,32.616,50.031,44.959l-0.331,47.628c-0.012,1.671,1.038,3.165,2.613,3.72l53.914,19.012
						c1.576,0.555,3.331,0.049,4.369-1.258l29.617-37.301c22.77,2.489,45.427,1.145,67.165-3.633l33.466,33.935
						c1.173,1.189,2.971,1.504,4.478,0.783l51.566-24.68c1.508-0.722,2.391-2.32,2.2-3.979l-5.437-47.349
						c17.356-13.934,32.615-30.736,44.959-50.031l47.629,0.331c1.67,0.012,3.164-1.038,3.72-2.613l19.012-53.915
						c0.556-1.575,0.051-3.33-1.259-4.368l-37.301-29.618c2.49-22.77,1.146-45.426-3.632-67.165l33.935-33.466
						c1.188-1.172,1.503-2.971,0.782-4.478l-24.68-51.566c-0.721-1.508-2.319-2.391-3.979-2.2l-47.349,5.438
						c-13.933-17.357-30.736-32.616-50.031-44.959l0.331-47.629c0.011-1.67-1.038-3.164-2.613-3.72L2973,547.5
						c-1.575-0.556-3.33-0.051-4.369,1.258l-29.617,37.301c-22.77-2.491-45.427-1.145-67.166,3.633l-33.465-33.935
						c-1.173-1.19-2.972-1.504-4.479-0.783l-51.566,24.68c-1.507,0.721-2.39,2.319-2.2,3.979l5.437,47.349
						c-17.356,13.934-32.615,30.737-44.958,50.031l-47.629-0.331c-1.67-0.012-3.165,1.038-3.719,2.614l-19.011,53.914
						c-0.555,1.576-0.051,3.33,1.258,4.369l37.301,29.617c-2.49,22.769-1.145,45.426,3.633,67.165l-33.934,33.466
						c-1.19,1.173-1.504,2.971-0.783,4.479L2702.41,927.871z"/>
					<g>
						<path style="fill:#BDD0FB;" d="M2902.894,849.565c-27.221-6.606-46.273-32.395-43.634-61.101
							c2.904-31.555,30.934-54.861,62.487-51.959c15.287,1.403,29.109,8.68,38.92,20.481c9.814,11.801,14.445,26.719,13.038,42.004
							c-2.903,31.555-30.934,54.861-62.486,51.959C2908.374,850.686,2905.592,850.22,2902.894,849.565z M2926.965,750.925
							c-2.102-0.51-4.252-0.87-6.446-1.073c-24.191-2.226-45.684,15.648-47.91,39.837c-2.225,24.193,15.638,45.693,39.838,47.911
							c24.191,2.227,45.683-15.647,47.91-39.837c1.078-11.721-2.472-23.157-9.997-32.207
							C2944.243,758.203,2936.094,753.14,2926.965,750.925z"/>
					</g>
					<path style="fill:#BDD0FB;" d="M2884.463,930.499c-4.675-1.135-9.321-2.511-13.92-4.132l0,0c-1.448-0.51-2.887-1.044-4.318-1.6
						c-7.054-2.746-13.879-6.048-20.369-9.856c-0.088-0.052-0.177-0.104-0.265-0.155c-0.25-0.148-0.5-0.297-0.75-0.448
						c-0.487-0.29-0.971-0.586-1.453-0.881c-1.269-0.779-1.836-2.267-1.504-3.642c0.081-0.334,0.216-0.661,0.405-0.969
						c0.969-1.577,3.033-2.063,4.609-1.098c8.113,4.99,16.818,9.136,25.874,12.327c44.977,15.868,92.854,6.31,127.881-21.118
						c19.484-15.253,34.992-36.037,43.812-61.054c1.548-4.387,2.863-8.819,3.943-13.279c7.279-30.012,4.042-61.353-9.47-89.583
						c-15.52-32.429-42.74-56.874-76.644-68.828c-70.024-24.684-147.014,12.184-171.693,82.172c-1.522,4.315-2.819,8.692-3.89,13.11
						c-4.642,19.144-5.044,39.092-1.106,58.412c0.101,0.499,0.087,0.994-0.027,1.458c-0.296,1.221-1.273,2.227-2.587,2.494
						c-1.816,0.364-3.585-0.796-3.953-2.616c-4.134-20.284-3.714-41.227,1.159-61.325c1.124-4.637,2.486-9.23,4.082-13.76
						c25.91-73.481,106.789-112.168,180.244-86.267c35.594,12.551,64.168,38.213,80.461,72.257
						c14.187,29.637,17.584,62.539,9.943,94.046c-1.136,4.682-2.516,9.334-4.138,13.938c-12.553,35.596-38.214,64.171-72.257,80.464
						C2948.887,934.752,2915.975,938.146,2884.463,930.499z"/>
				</g>
			</g>
			<g>
				<g style="opacity:0.3;">
					<path style="fill:#91B3FA;" d="M2260.302,908.357c-2.176-0.528-3.835-2.433-3.946-4.784c-0.209-4.388-0.288-8.843-0.233-13.239
						c0.036-2.857,2.379-5.143,5.239-5.11c2.862,0.024,5.145,2.382,5.11,5.239c-0.052,4.189,0.022,8.435,0.221,12.623
						c0.137,2.852-2.068,5.275-4.923,5.415C2261.263,908.523,2260.771,908.471,2260.302,908.357z"/>
					<path style="fill:#91B3FA;" d="M2262.071,868.589c-2.549-0.618-4.266-3.079-3.9-5.73c1.028-7.494,2.454-15.021,4.237-22.368
						c0.375-1.547,0.77-3.094,1.179-4.644c0.736-2.765,3.69-4.268,6.33-3.68c2.763,0.733,4.407,3.566,3.678,6.327
						c-0.393,1.48-0.771,2.96-1.129,4.438c-1.7,7.008-3.06,14.187-4.043,21.333c-0.388,2.833-2.998,4.811-5.829,4.425
						C2262.415,868.662,2262.24,868.63,2262.071,868.589z M2275.844,816.654c-0.238-0.058-0.478-0.131-0.71-0.224
						c-2.654-1.065-3.943-4.077-2.88-6.731c3.408-8.513,7.375-16.89,11.789-24.893c1.38-2.505,4.539-3.402,7.03-2.033
						c2.504,1.382,3.413,4.525,2.033,7.03c-4.211,7.636-7.994,15.627-11.246,23.745
						C2280.891,815.965,2278.304,817.251,2275.844,816.654z M2301.799,769.609c-0.638-0.155-1.256-0.435-1.821-0.842
						c-2.312-1.679-2.821-4.918-1.142-7.23c5.385-7.404,11.291-14.556,17.558-21.246c1.956-2.089,5.221-2.196,7.315-0.238
						c2.085,1.952,2.192,5.228,0.24,7.313c-5.976,6.381-11.608,13.195-16.741,20.259
						C2305.937,769.37,2303.776,770.089,2301.799,769.609z M2338.528,730.384c-1.042-0.253-2.011-0.831-2.751-1.713
						c-1.828-2.196-1.532-5.463,0.664-7.291c7.049-5.871,14.521-11.354,22.215-16.299c2.405-1.543,5.607-0.839,7.149,1.558
						c1.546,2.403,0.85,5.604-1.556,7.152c-7.334,4.71-14.464,9.943-21.184,15.541
						C2341.755,730.424,2340.067,730.757,2338.528,730.384z M2383.721,701.32c-1.454-0.353-2.745-1.332-3.445-2.786
						c-1.239-2.573-0.156-5.664,2.417-6.907c8.255-3.972,16.832-7.475,25.495-10.407c2.71-0.923,5.646,0.533,6.561,3.241
						c0.916,2.708-0.536,5.647-3.241,6.561c-8.266,2.799-16.448,6.139-24.323,9.932
						C2386.063,701.493,2384.843,701.592,2383.721,701.32z M2434.593,684.107c-1.883-0.457-3.432-1.962-3.851-3.987
						c-0.577-2.797,1.226-5.532,4.023-6.111c8.972-1.848,18.144-3.153,27.258-3.875c2.858-0.217,5.341,1.905,5.568,4.752
						c0.227,2.847-1.902,5.342-4.749,5.566c-8.693,0.688-17.434,1.932-25.987,3.694
						C2436.081,684.307,2435.312,684.282,2434.593,684.107z M2488.115,679.856c-2.357-0.572-4.058-2.747-3.945-5.258
						c0.128-2.855,2.547-5.066,5.403-4.939c9.121,0.409,18.335,1.397,27.39,2.933c2.815,0.527,4.715,3.157,4.234,5.973
						c-0.478,2.817-3.15,4.712-5.968,4.236c-8.637-1.472-17.425-2.413-26.122-2.802
						C2488.765,679.983,2488.434,679.933,2488.115,679.856z M2566.346,698.164c-0.29-0.07-0.581-0.167-0.865-0.293
						c-6.908-3.034-14.103-5.742-21.387-8.05c-1.102-0.356-2.187-0.692-3.274-1.013c-2.739-0.821-4.297-3.7-3.479-6.439
						c0.815-2.746,3.738-4.376,6.438-3.482c1.158,0.349,2.313,0.702,3.468,1.075c7.61,2.414,15.153,5.253,22.396,8.435
						c2.618,1.15,3.807,4.2,2.657,6.817C2571.276,697.545,2568.741,698.745,2566.346,698.164z"/>
				</g>
				<g style="opacity:0.3;">
					<path style="fill:#91B3FA;" d="M2429.914,1110.892c-2.745-0.666-4.453-3.421-3.822-6.185c0.636-2.784,3.413-4.528,6.198-3.888
						c8.387,1.921,16.962,3.346,25.488,4.235c2.822,0.32,4.909,2.839,4.611,5.685c-0.298,2.845-2.844,4.905-5.685,4.611
						c-8.94-0.937-17.931-2.427-26.722-4.441C2429.961,1110.903,2429.936,1110.897,2429.914,1110.892z M2404.51,1103.443
						c-0.182-0.044-0.359-0.098-0.538-0.162c-8.479-3.045-16.857-6.639-24.905-10.677c-2.553-1.285-3.586-4.391-2.303-6.945
						c1.281-2.56,4.403-3.575,6.946-2.308c7.679,3.855,15.674,7.282,23.764,10.192c2.689,0.964,4.086,3.93,3.119,6.618
						C2409.688,1102.676,2407.043,1104.058,2404.51,1103.443z M2482.468,1116.365c-2.23-0.541-3.905-2.529-3.951-4.932
						c-0.054-2.852,2.217-5.214,5.075-5.269c8.608-0.168,17.275-0.857,25.767-2.057c2.837-0.388,5.448,1.572,5.845,4.403
						c0.401,2.827-1.571,5.448-4.401,5.848c-8.901,1.256-17.989,1.979-27.011,2.151
						C2483.333,1116.517,2482.89,1116.467,2482.468,1116.365z M2357.274,1079.698c-0.572-0.139-1.13-0.378-1.65-0.723
						c-7.502-4.998-14.771-10.511-21.601-16.386c-2.168-1.863-2.413-5.13-0.55-7.299c1.86-2.159,5.128-2.406,7.296-0.548
						c6.514,5.6,13.443,10.854,20.595,15.622c2.377,1.585,3.021,4.799,1.436,7.176
						C2361.562,1079.397,2359.327,1080.196,2357.274,1079.698z M2534.781,1108.971c-1.78-0.432-3.277-1.798-3.782-3.689
						c-0.741-2.764,0.899-5.601,3.657-6.341c8.295-2.22,16.539-4.972,24.509-8.187c2.655-1.072,5.668,0.216,6.735,2.867
						c1.068,2.651-0.216,5.668-2.867,6.735c-8.357,3.365-17.001,6.254-25.697,8.585
						C2536.469,1109.173,2535.594,1109.168,2534.781,1108.971z M2583.796,1089.243c-1.363-0.331-2.585-1.21-3.314-2.531
						c-1.379-2.503-0.469-5.652,2.033-7.031c7.54-4.156,14.893-8.804,21.852-13.813c2.322-1.672,5.558-1.142,7.224,1.176
						c1.671,2.319,1.144,5.55-1.175,7.219c-7.297,5.255-15.003,10.129-22.904,14.484
						C2586.333,1089.395,2585.009,1089.537,2583.796,1089.243z M2626.677,1058.338c-0.958-0.232-1.86-0.737-2.577-1.519
						c-1.94-2.099-1.809-5.374,0.292-7.313c6.327-5.833,12.348-12.11,17.896-18.653c1.848-2.172,5.115-2.446,7.292-0.596
						c2.179,1.849,2.448,5.113,0.598,7.295c-5.819,6.857-12.133,13.442-18.767,19.564
						C2630.089,1058.334,2628.302,1058.733,2626.677,1058.338z"/>
					<path style="fill:#91B3FA;" d="M2317.015,1045.066c-0.97-0.235-1.882-0.753-2.604-1.547c-2.98-3.276-5.875-6.657-8.61-10.045
						c-1.793-2.224-1.446-5.484,0.778-7.279c2.225-1.784,5.48-1.442,7.279,0.778c2.606,3.233,5.37,6.457,8.212,9.585
						c1.923,2.115,1.765,5.389-0.349,7.31C2320.4,1045.066,2318.628,1045.458,2317.015,1045.066z"/>
				</g>
				<g>
					<path style="fill:#91B3FA;" d="M2336.96,981.116c0.482,1.008,1.552,1.6,2.662,1.472l31.684-3.638
						c9.324,11.614,20.567,21.825,33.478,30.085l-0.221,31.87c-0.008,1.118,0.694,2.117,1.749,2.489l36.077,12.722
						c1.055,0.372,2.228,0.033,2.924-0.842l19.818-24.96c15.237,1.666,30.397,0.766,44.944-2.431l22.394,22.708
						c0.785,0.796,1.989,1.006,2.997,0.523l34.506-16.515c1.009-0.483,1.6-1.552,1.472-2.663l-3.638-31.683
						c11.614-9.324,21.825-20.567,30.085-33.479l31.871,0.222c1.118,0.008,2.118-0.694,2.489-1.748l12.722-36.078
						c0.372-1.055,0.034-2.229-0.842-2.923l-24.96-19.819c1.667-15.237,0.766-30.397-2.431-44.944l22.708-22.395
						c0.795-0.785,1.006-1.988,0.524-2.996l-16.515-34.506c-0.482-1.008-1.552-1.599-2.662-1.472l-31.684,3.639
						c-9.323-11.614-20.567-21.825-33.478-30.084l0.222-31.872c0.008-1.117-0.694-2.117-1.749-2.489l-36.077-12.722
						c-1.054-0.372-2.228-0.034-2.923,0.842l-19.818,24.961c-15.237-1.666-30.398-0.766-44.945,2.431l-22.393-22.707
						c-0.785-0.797-1.989-1.007-2.997-0.524l-34.506,16.515c-1.008,0.483-1.6,1.552-1.472,2.663l3.638,31.683
						c-11.614,9.324-21.825,20.567-30.084,33.479l-31.871-0.222c-1.117-0.008-2.117,0.694-2.488,1.749l-12.722,36.076
						c-0.371,1.055-0.034,2.228,0.842,2.924l24.96,19.819c-1.666,15.236-0.766,30.397,2.43,44.943l-22.707,22.394
						c-0.796,0.785-1.006,1.988-0.524,2.997L2336.96,981.116z"/>
					<g>
						<path style="fill:#BDD0FB;" d="M2470.895,929.377c-8.113-1.969-15.352-6.466-20.786-13
							c-6.684-8.039-9.837-18.201-8.878-28.613c1.974-21.486,21.066-37.363,42.56-35.392c21.518,2.018,37.371,21.076,35.394,42.566
							c-0.957,10.413-5.912,19.829-13.95,26.511c-8.039,6.687-18.202,9.842-28.616,8.88
							C2474.674,930.149,2472.76,929.83,2470.895,929.377z M2487.014,863.372c-1.354-0.328-2.745-0.562-4.171-0.695
							c-15.81-1.45-29.853,10.228-31.307,26.037c-0.703,7.655,1.614,15.134,6.531,21.044c4.919,5.915,11.845,9.551,19.503,10.266
							l0,0c7.658,0.704,15.135-1.616,21.046-6.531c5.916-4.919,9.559-11.845,10.264-19.506
							C2510.203,879.608,2500.654,866.682,2487.014,863.372z"/>
					</g>
					<path style="fill:#BDD0FB;" d="M2457.994,985.695c-3.182-0.772-6.35-1.713-9.502-2.821c-6.259-2.205-12.3-5.049-17.969-8.463
						c-0.254-0.155-0.507-0.31-0.761-0.466c-1.96-1.203-2.835-3.501-2.322-5.623c0.125-0.516,0.333-1.021,0.625-1.496
						c1.496-2.435,4.682-3.18,7.117-1.695c5.262,3.238,10.898,5.921,16.748,7.98l0.002,0.001c0.321,0.114,0.645,0.224,0.965,0.333
						c13.889,4.748,28.436,5.855,42.531,3.452c7.651-1.305,15.173-3.651,22.385-7.023c0.059-0.027,0.117-0.055,0.176-0.082
						c0.18-0.087,0.358-0.168,0.535-0.255c20.992-10.049,36.818-27.669,44.557-49.619c1.004-2.84,1.853-5.708,2.554-8.595
						c4.712-19.429,2.615-39.719-6.131-57.998c-10.049-20.993-27.671-36.813-49.617-44.552c-21.937-7.726-45.598-6.468-66.593,3.575
						c-20.992,10.049-36.818,27.669-44.557,49.619c-0.987,2.792-1.825,5.626-2.519,8.484c-3.005,12.396-3.266,25.307-0.716,37.813
						c0.156,0.771,0.135,1.535-0.042,2.252c-0.458,1.886-1.965,3.439-3.995,3.851c-2.802,0.563-5.533-1.233-6.105-4.04
						c-2.852-13.994-2.562-28.443,0.797-42.307c0.777-3.202,1.715-6.37,2.816-9.494c8.661-24.559,26.365-44.272,49.854-55.514
						c23.486-11.238,49.936-12.682,74.499-4.002c24.557,8.658,44.271,26.359,55.51,49.85c9.789,20.446,12.132,43.146,6.86,64.883
						c-0.783,3.227-1.734,6.438-2.853,9.614C2556.076,970.9,2505.969,997.337,2457.994,985.695z"/>
				</g>
			</g>
		</g>
		<g>
			<path style="fill:#91B3FA;" d="M1256.807,1361.781c-0.361-17.735-16.023-32.328-35.223-32.328H495.912
				c-19.456,0-38.564,15.355-38.564,33.331v1606.685c0,8.648,5.393,16.941,12.019,23.047c6.628,6.106,16.447,9.524,25.807,9.501
				l758.73-1.914c9.441-0.023,18.684-3.548,25.288-9.781c6.604-6.235,10.327-14.852,10.149-23.573L1256.807,1361.781z"/>
			<g style="opacity:0.5;">
				<g>
					<polygon style="fill:#FFFFFF;" points="722.388,1518.781 515.659,1518.525 514.019,1420.625 720.948,1420.625 					"/>
					<polygon style="fill:#FFFFFF;" points="954.107,1518.732 747.586,1518.476 746.171,1420.625 952.892,1420.625 					"/>
					<polygon style="fill:#FFFFFF;" points="1185.592,1518.683 979.279,1518.426 978.089,1420.625 1184.602,1420.625 					"/>
				</g>
				<g>
					<polygon style="fill:#FFFFFF;" points="724.971,1694.508 518.603,1694.63 516.969,1597.369 723.536,1597.291 					"/>
					<polygon style="fill:#FFFFFF;" points="956.286,1694.372 750.125,1694.494 748.716,1597.281 955.076,1597.202 					"/>
					<polygon style="fill:#FFFFFF;" points="1187.369,1694.235 981.416,1694.357 980.23,1597.193 1186.383,1597.114 					"/>
				</g>
				<g>
					<polygon style="fill:#FFFFFF;" points="727.545,1869.028 521.536,1869.228 519.908,1772.304 726.116,1772.147 					"/>
					<polygon style="fill:#FFFFFF;" points="958.459,1868.804 752.656,1869.004 751.251,1772.129 957.252,1771.972 					"/>
					<polygon style="fill:#FFFFFF;" points="1189.14,1868.58 983.544,1868.78 982.362,1771.953 1188.157,1771.796 					"/>
				</g>
				<g>
					<polygon style="fill:#FFFFFF;" points="730.112,2042.944 524.46,2043.221 522.837,1946.632 728.687,1946.398 					"/>
					<polygon style="fill:#FFFFFF;" points="960.624,2042.633 755.178,2042.909 753.778,1946.37 959.422,1946.136 					"/>
					<polygon style="fill:#FFFFFF;" points="1190.905,2042.322 985.665,2042.599 984.488,1946.107 1189.925,1945.873 					"/>
				</g>
				<g>
					<polygon style="fill:#FFFFFF;" points="732.668,2216.258 527.373,2216.612 525.756,2120.357 731.249,2120.046 					"/>
					<polygon style="fill:#FFFFFF;" points="962.781,2215.861 757.692,2216.215 756.297,2120.008 961.583,2119.697 					"/>
					<polygon style="fill:#FFFFFF;" points="1192.664,2215.465 987.779,2215.818 986.606,2119.659 1191.688,2119.349 					"/>
				</g>
				<g>
					<polygon style="fill:#FFFFFF;" points="735.216,2388.975 530.277,2389.404 528.665,2293.483 733.802,2293.094 					"/>
					<polygon style="fill:#FFFFFF;" points="964.931,2388.492 760.196,2388.922 758.805,2293.047 963.737,2292.66 					"/>
					<polygon style="fill:#FFFFFF;" points="1194.417,2388.01 989.886,2388.44 988.716,2292.613 1193.443,2292.226 					"/>
				</g>
				<g>
					<polygon style="fill:#FFFFFF;" points="737.755,2561.096 533.17,2561.602 531.564,2466.01 736.346,2465.546 					"/>
					<polygon style="fill:#FFFFFF;" points="967.074,2560.529 762.692,2561.034 761.307,2465.49 965.884,2465.026 					"/>
					<polygon style="fill:#FFFFFF;" points="1196.164,2559.963 991.986,2560.468 990.82,2464.97 1195.194,2464.507 					"/>
				</g>
				<g>
					<polygon style="fill:#FFFFFF;" points="740.286,2732.625 536.053,2733.207 534.453,2637.944 738.881,2637.404 					"/>
					<polygon style="fill:#FFFFFF;" points="969.208,2731.975 765.18,2732.555 763.799,2637.338 968.024,2636.8 					"/>
					<polygon style="fill:#FFFFFF;" points="1197.904,2731.325 994.078,2731.904 992.916,2636.734 1196.938,2636.196 					"/>
				</g>
				<g>
					<polygon style="fill:#FFFFFF;" points="742.808,2903.567 538.927,2904.223 537.332,2809.287 741.407,2808.673 					"/>
					<polygon style="fill:#FFFFFF;" points="971.336,2902.832 767.658,2903.488 766.282,2808.597 970.155,2807.984 					"/>
					<polygon style="fill:#FFFFFF;" points="1199.639,2902.099 996.162,2902.753 995.005,2807.909 1198.675,2807.296 					"/>
				</g>
			</g>
		</g>
		<g>
			<path style="fill:#BDD0FB;" d="M3216.563,954.811c-0.4-22.18-17.769-40.43-39.061-40.43h-804.759
				c-21.577,0-42.766,19.202-42.766,41.684v2009.323c0,10.815,5.979,21.187,13.329,28.824c7.35,7.636,18.239,11.911,28.619,11.881
				l841.42-2.392c10.469-0.029,20.721-4.437,28.044-12.233c7.323-7.797,11.452-18.573,11.256-29.48L3216.563,954.811z"/>
			<g style="opacity:0.5;">
				<g>
					<polygon style="fill:#FFFFFF;" points="2623.901,1151.156 2394.642,1150.836 2392.823,1028.401 2622.305,1028.401 					"/>
					<polygon style="fill:#FFFFFF;" points="2880.873,1151.095 2651.845,1150.774 2650.276,1028.401 2879.526,1028.401 					"/>
					<polygon style="fill:#FFFFFF;" points="3137.588,1151.033 2908.789,1150.712 2907.47,1028.401 3136.489,1028.401 					"/>
				</g>
				<g>
					<polygon style="fill:#FFFFFF;" points="2626.766,1370.921 2397.908,1371.073 2396.094,1249.438 2625.175,1249.341 					"/>
					<polygon style="fill:#FFFFFF;" points="2883.291,1370.75 2654.661,1370.902 2653.097,1249.328 2881.948,1249.229 					"/>
					<polygon style="fill:#FFFFFF;" points="3139.558,1370.579 2911.159,1370.731 2909.844,1249.218 3138.465,1249.119 					"/>
				</g>
				<g>
					<polygon style="fill:#FFFFFF;" points="2629.621,1589.176 2401.16,1589.426 2399.354,1468.212 2628.036,1468.016 					"/>
					<polygon style="fill:#FFFFFF;" points="2885.7,1588.895 2657.468,1589.144 2655.91,1467.992 2884.363,1467.796 					"/>
					<polygon style="fill:#FFFFFF;" points="3141.522,1588.615 2913.519,1588.864 2912.209,1467.773 3140.432,1467.577 					"/>
				</g>
				<g>
					<polygon style="fill:#FFFFFF;" points="2632.468,1806.675 2404.402,1807.021 2402.602,1686.228 2630.887,1685.934 					"/>
					<polygon style="fill:#FFFFFF;" points="2888.101,1806.286 2660.265,1806.632 2658.712,1685.899 2886.768,1685.606 					"/>
					<polygon style="fill:#FFFFFF;" points="3143.479,1805.898 2915.872,1806.244 2914.565,1685.571 3142.393,1685.279 					"/>
				</g>
				<g>
					<polygon style="fill:#FFFFFF;" points="2635.302,2023.422 2407.633,2023.865 2405.84,1903.488 2633.727,1903.099 					"/>
					<polygon style="fill:#FFFFFF;" points="2890.493,2022.926 2663.052,2023.368 2661.505,1903.052 2889.165,1902.662 					"/>
					<polygon style="fill:#FFFFFF;" points="3145.43,2022.43 2918.216,2022.872 2916.914,1902.616 3144.347,1902.227 					"/>
				</g>
				<g>
					<polygon style="fill:#FFFFFF;" points="2638.128,2239.422 2410.854,2239.959 2409.066,2120 2636.558,2119.514 					"/>
					<polygon style="fill:#FFFFFF;" points="2892.878,2238.819 2665.83,2239.356 2664.288,2119.455 2891.554,2118.97 					"/>
					<polygon style="fill:#FFFFFF;" points="3147.373,2238.216 2920.552,2238.753 2919.256,2118.911 3146.295,2118.427 					"/>
				</g>
				<g>
					<polygon style="fill:#FFFFFF;" points="2640.943,2454.677 2414.061,2455.31 2412.28,2335.762 2639.38,2335.182 					"/>
					<polygon style="fill:#FFFFFF;" points="2895.253,2453.968 2668.597,2454.6 2667.062,2335.111 2893.934,2334.532 					"/>
					<polygon style="fill:#FFFFFF;" points="3149.311,2453.26 2922.881,2453.892 2921.588,2334.462 3148.236,2333.883 					"/>
				</g>
				<g>
					<polygon style="fill:#FFFFFF;" points="2643.749,2669.193 2417.26,2669.92 2415.484,2550.784 2642.191,2550.108 					"/>
					<polygon style="fill:#FFFFFF;" points="2897.621,2668.379 2671.356,2669.104 2669.825,2550.026 2896.307,2549.353 					"/>
					<polygon style="fill:#FFFFFF;" points="3151.241,2667.566 2925.201,2668.29 2923.913,2549.271 3150.169,2548.598 					"/>
				</g>
				<g>
					<polygon style="fill:#FFFFFF;" points="2646.546,2882.973 2420.446,2883.794 2418.677,2765.065 2644.993,2764.298 					"/>
					<polygon style="fill:#FFFFFF;" points="2899.981,2882.054 2674.104,2882.873 2672.578,2764.204 2898.671,2763.436 					"/>
					<polygon style="fill:#FFFFFF;" points="3153.165,2881.136 2927.513,2881.955 2926.229,2763.342 3152.097,2762.576 					"/>
				</g>
			</g>
		</g>
		<g>
			<path style="fill:#91B3FA;" d="M2854.703,1517.841c-0.201-10.332-8.997-18.647-19.777-18.647H2181.07
				c-10.925,0-22.529,8.571-22.529,19.044v1462.906c0,7.817,4.62,15.313,10.393,20.834c5.774,5.52,14.289,8.61,22.444,8.589
				l661.018-1.73c8.225-0.021,16.268-3.207,22.022-8.843c5.754-5.636,8.993-13.27,8.838-21.153L2854.703,1517.841z"/>
			<g style="opacity:0.56;">
				<polygon style="fill:#FFFFFF;" points="2479.202,1602.868 2265.311,1602.158 2265.391,1576.502 2479.042,1577.149 				"/>
				<polygon style="fill:#FFFFFF;" points="2479.789,1697.366 2265.018,1696.427 2265.098,1670.56 2479.628,1671.437 				"/>
				<polygon style="fill:#FFFFFF;" points="2480.38,1792.646 2264.722,1791.473 2264.803,1765.393 2480.218,1766.502 				"/>
				<polygon style="fill:#FFFFFF;" points="2480.976,1888.718 2264.424,1887.308 2264.506,1861.011 2480.813,1862.357 				"/>
				<polygon style="fill:#FFFFFF;" points="2481.577,1985.59 2264.124,1983.938 2264.207,1957.422 2481.412,1959.008 				"/>
				<polygon style="fill:#FFFFFF;" points="2482.794,2181.774 2263.515,2179.627 2263.599,2152.666 2482.626,2154.744 				"/>
				<polygon style="fill:#FFFFFF;" points="2484.66,2482.314 2262.583,2479.393 2262.669,2451.741 2484.487,2454.589 				"/>
				<polygon style="fill:#FFFFFF;" points="2482.183,2083.271 2263.821,2081.374 2263.904,2054.637 2482.017,2056.467 				"/>
				<polygon style="fill:#FFFFFF;" points="2483.411,2281.11 2263.207,2278.709 2263.292,2251.521 2483.242,2253.851 				"/>
				<polygon style="fill:#FFFFFF;" points="2484.032,2381.286 2262.897,2378.627 2262.982,2351.208 2483.862,2353.795 				"/>
				<polygon style="fill:#FFFFFF;" points="2485.292,2584.205 2262.268,2581.018 2262.354,2553.13 2485.118,2556.243 				"/>
				<polygon style="fill:#FFFFFF;" points="2485.929,2686.972 2261.949,2683.514 2262.036,2655.386 2485.754,2658.77 				"/>
				<polygon style="fill:#FFFFFF;" points="2486.573,2790.626 2261.627,2786.892 2261.716,2758.522 2486.396,2762.18 				"/>
				<polygon style="fill:#FFFFFF;" points="2487.222,2895.175 2261.303,2891.162 2261.392,2862.546 2487.043,2866.483 				"/>
				<polygon style="fill:#FFFFFF;" points="2759.63,1603.798 2544.396,1603.083 2544.164,1577.347 2759.155,1577.999 				"/>
				<polygon style="fill:#FFFFFF;" points="2761.376,1698.598 2545.252,1697.653 2545.018,1671.703 2760.897,1672.585 				"/>
				<polygon style="fill:#FFFFFF;" points="2763.136,1794.185 2546.114,1793.004 2545.878,1766.84 2762.653,1767.955 				"/>
				<polygon style="fill:#FFFFFF;" points="2764.911,1890.568 2546.984,1889.149 2546.745,1862.767 2764.424,1864.121 				"/>
				<polygon style="fill:#FFFFFF;" points="2766.701,1987.756 2547.861,1986.094 2547.62,1959.491 2766.21,1961.087 				"/>
				<polygon style="fill:#FFFFFF;" points="2770.326,2184.589 2549.636,2182.428 2549.392,2155.378 2769.826,2157.469 				"/>
				<polygon style="fill:#FFFFFF;" points="2775.879,2486.143 2552.357,2483.204 2552.106,2455.458 2775.367,2458.324 				"/>
				<polygon style="fill:#FFFFFF;" points="2768.506,2085.76 2548.745,2083.85 2548.502,2057.025 2768.01,2058.866 				"/>
				<polygon style="fill:#FFFFFF;" points="2772.162,2284.258 2550.535,2281.842 2550.289,2254.562 2771.658,2256.907 				"/>
				<polygon style="fill:#FFFFFF;" points="2774.013,2384.771 2551.442,2382.096 2551.194,2354.584 2773.505,2357.188 				"/>
				<polygon style="fill:#FFFFFF;" points="2777.762,2588.385 2553.279,2585.177 2553.026,2557.193 2777.246,2560.327 				"/>
				<polygon style="fill:#FFFFFF;" points="2779.662,2691.506 2554.21,2688.026 2553.954,2659.801 2779.14,2663.206 				"/>
				<polygon style="fill:#FFFFFF;" points="2781.577,2795.522 2555.147,2791.764 2554.89,2763.295 2781.051,2766.977 				"/>
				<polygon style="fill:#FFFFFF;" points="2783.51,2900.439 2556.094,2896.399 2555.834,2867.683 2782.979,2871.645 				"/>
			</g>
		</g>
		<g>
			<path style="fill:#BDD0FB;" d="M1985.38,1259.026c-0.24-12.307-10.717-22.211-23.557-22.211h-778.831
				c-13.013,0-26.835,10.209-26.835,22.684v1742.518c0,9.311,5.503,18.24,12.38,24.816c6.878,6.575,17.02,10.256,26.734,10.23
				l787.361-2.06c9.797-0.025,19.378-3.82,26.231-10.533c6.853-6.713,10.712-15.806,10.528-25.197L1985.38,1259.026z"/>
			<g style="opacity:0.48;">
				<polygon style="fill:#FFFFFF;" points="1538.108,1360.304 1283.335,1359.459 1283.43,1328.899 1537.918,1329.67 				"/>
				<polygon style="fill:#FFFFFF;" points="1538.807,1472.865 1282.986,1471.746 1283.082,1440.935 1538.615,1441.979 				"/>
				<polygon style="fill:#FFFFFF;" points="1539.511,1586.356 1282.634,1584.959 1282.73,1553.894 1539.318,1555.214 				"/>
				<polygon style="fill:#FFFFFF;" points="1540.221,1700.791 1282.279,1699.111 1282.376,1667.788 1540.027,1669.391 				"/>
				<polygon style="fill:#FFFFFF;" points="1540.938,1816.178 1281.921,1814.21 1282.02,1782.626 1540.741,1784.515 				"/>
				<polygon style="fill:#FFFFFF;" points="1542.387,2049.86 1281.196,2047.303 1281.296,2015.188 1542.187,2017.663 				"/>
				<polygon style="fill:#FFFFFF;" points="1544.609,2407.842 1280.086,2404.364 1280.189,2371.427 1544.404,2374.819 				"/>
				<polygon style="fill:#FFFFFF;" points="1541.659,1932.53 1281.561,1930.27 1281.659,1898.422 1541.461,1900.602 				"/>
				<polygon style="fill:#FFFFFF;" points="1543.122,2168.182 1280.829,2165.323 1280.93,2132.937 1542.921,2135.713 				"/>
				<polygon style="fill:#FFFFFF;" points="1543.862,2287.505 1280.46,2284.338 1280.561,2251.678 1543.659,2254.76 				"/>
				<polygon style="fill:#FFFFFF;" points="1545.362,2529.209 1279.71,2525.413 1279.813,2492.194 1545.155,2495.903 				"/>
				<polygon style="fill:#FFFFFF;" points="1546.122,2651.618 1279.33,2647.499 1279.435,2613.995 1545.913,2618.025 				"/>
				<polygon style="fill:#FFFFFF;" points="1546.888,2775.084 1278.948,2770.636 1279.052,2736.844 1546.678,2741.201 				"/>
				<polygon style="fill:#FFFFFF;" points="1547.661,2899.616 1278.561,2894.835 1278.667,2860.751 1547.448,2865.439 				"/>
				<polygon style="fill:#FFFFFF;" points="1872.135,1361.412 1615.764,1360.561 1615.487,1329.906 1871.57,1330.682 				"/>
				<polygon style="fill:#FFFFFF;" points="1874.215,1474.332 1616.783,1473.206 1616.503,1442.297 1873.645,1443.347 				"/>
				<polygon style="fill:#FFFFFF;" points="1876.312,1588.188 1617.81,1586.782 1617.528,1555.617 1875.737,1556.946 				"/>
				<polygon style="fill:#FFFFFF;" points="1878.426,1702.995 1618.845,1701.303 1618.561,1669.879 1877.846,1671.491 				"/>
				<polygon style="fill:#FFFFFF;" points="1880.558,1818.758 1619.89,1816.778 1619.604,1785.091 1879.973,1786.992 				"/>
				<polygon style="fill:#FFFFFF;" points="1884.876,2053.213 1622.005,2050.639 1621.714,2018.418 1884.281,2020.909 				"/>
				<polygon style="fill:#FFFFFF;" points="1891.491,2412.404 1625.245,2408.903 1624.946,2375.854 1890.88,2379.268 				"/>
				<polygon style="fill:#FFFFFF;" points="1882.708,1935.493 1620.943,1933.219 1620.654,1901.266 1882.118,1903.46 				"/>
				<polygon style="fill:#FFFFFF;" points="1887.062,2171.932 1623.076,2169.053 1622.782,2136.56 1886.463,2139.353 				"/>
				<polygon style="fill:#FFFFFF;" points="1889.268,2291.657 1624.156,2288.469 1623.86,2255.699 1888.662,2258.801 				"/>
				<polygon style="fill:#FFFFFF;" points="1893.734,2534.188 1626.344,2530.366 1626.042,2497.034 1893.118,2500.767 				"/>
				<polygon style="fill:#FFFFFF;" points="1895.996,2657.019 1627.452,2652.873 1627.147,2619.254 1895.375,2623.31 				"/>
				<polygon style="fill:#FFFFFF;" points="1898.278,2780.916 1628.569,2776.439 1628.263,2742.529 1897.651,2746.915 				"/>
				<polygon style="fill:#FFFFFF;" points="1900.579,2905.885 1629.697,2901.074 1629.387,2866.869 1899.947,2871.589 				"/>
			</g>
		</g>
		<g>
			<g>
				
					<linearGradient id="SVGID_00000014614793559180471780000011682754655015791524_" gradientUnits="userSpaceOnUse" x1="1962.9873" y1="3184.0435" x2="1932.6489" y2="2583.3513">
					<stop  offset="0" style="stop-color:#09005D"/>
					<stop  offset="1" style="stop-color:#1A0F91"/>
				</linearGradient>
				<polygon style="fill:url(#SVGID_00000014614793559180471780000011682754655015791524_);" points="1709.46,2502.099 
					1659.072,2954.006 2243.666,2954.006 2167.522,2502.099 				"/>
				
					<linearGradient id="SVGID_00000106149328823507870420000006949417175339652541_" gradientUnits="userSpaceOnUse" x1="692.2165" y1="1925.1267" x2="3093.4438" y2="1925.1267">
					<stop  offset="0" style="stop-color:#09005D"/>
					<stop  offset="1" style="stop-color:#1A0F91"/>
				</linearGradient>
				<path style="fill:url(#SVGID_00000106149328823507870420000006949417175339652541_);" d="M692.216,1356.399v1065.008
					c0,87.611,69.815,159.256,157.397,161.514c388.993,10.03,1749.502,34.353,2119.798,28.894
					c63.644-0.938,115.201-51.868,117.038-115.493c7.14-247.416,18.737-842.368-24.178-1118.582
					c-9.038-58.168-58.136-101.664-116.972-103.546c-325.927-10.427-1768.156-43.534-2138.278-35.222
					C743.188,1240.407,692.216,1292.55,692.216,1356.399z"/>
				<path style="fill:#7D97F4;" d="M759.043,1351.215v1011.831c0,51.152,41.061,92.832,92.208,93.597l2064.888,25.511
					c50.708,0.758,92.273-40.039,92.462-90.752l3.454-1002.791c0.135-36.261-28.754-65.972-65.005-66.854l-2114.063-42.709
					C792.443,1278.061,759.043,1310.659,759.043,1351.215z"/>
				<path style="opacity:0.65;fill:#FFFFFF;" d="M3024.148,2524.079c-0.02,0-0.038,0-0.058,0l-2265.102-38.593
					c-1.832-0.033-3.293-1.544-3.262-3.376c0.03-1.832,1.524-3.277,3.374-3.263l2265.103,38.593
					c1.832,0.033,3.293,1.544,3.261,3.376C3027.434,2522.627,3025.953,2524.079,3024.148,2524.079z"/>
				
					<linearGradient id="SVGID_00000082340562934649053390000013794066244415138949_" gradientUnits="userSpaceOnUse" x1="1964.8754" y1="2957.3784" x2="1685.7654" y2="3570.2063">
					<stop  offset="0" style="stop-color:#09005D"/>
					<stop  offset="1" style="stop-color:#1A0F91"/>
				</linearGradient>
				<path style="fill:url(#SVGID_00000082340562934649053390000013794066244415138949_);" d="M2369.587,3046.466h-855.593
					c-23.244,0-40.699-16.547-36.205-34.322l10.979-43.419c3.301-13.057,17.667-22.644,34.729-23.176l824.823-25.738
					c17.825-0.556,33.609,8.906,37.492,22.476l19.792,69.156C2410.745,3029.411,2393.207,3046.466,2369.587,3046.466z"/>
			</g>
		</g>
		<g>
			
				<linearGradient id="SVGID_00000002349102728519843910000005611283205577664954_" gradientUnits="userSpaceOnUse" x1="19445.0742" y1="1184.4957" x2="19115.8652" y2="1372.4031" gradientTransform="matrix(-1 0 0 1 19947.5723 0)">
				<stop  offset="0" style="stop-color:#FEBBBA"/>
				<stop  offset="1" style="stop-color:#FF928E"/>
			</linearGradient>
			<path style="fill:url(#SVGID_00000002349102728519843910000005611283205577664954_);" d="M552.55,1490.829
				c0.388-0.149,209.202-365.831,237.418-400.244c4.747-5.788,12.094-8.735,19.528-7.85l58.283,6.946l68.47,148.126l-114.07-66.433
				c11.287,78.063-135.251,194.075-185.507,236.407c-5.1,4.296-5.519,11.991-0.912,16.812l20.064,21.003
				c-32.94,33.389-70.949,54.828-113.849,64.743L552.55,1490.829z"/>
			
				<linearGradient id="SVGID_00000036944531537216218010000006723165893917679502_" gradientUnits="userSpaceOnUse" x1="-8721.9375" y1="-5167.0254" x2="-8747.21" y2="-4779.5205" gradientTransform="matrix(0.8974 -0.4412 0.4412 0.8974 10652.2939 2161.1482)">
				<stop  offset="0" style="stop-color:#4F52FF"/>
				<stop  offset="1" style="stop-color:#4042E2"/>
			</linearGradient>
			<path style="fill:url(#SVGID_00000036944531537216218010000006723165893917679502_);" d="M644.218,1434.261
				c0,0,12.805,4.137,17.141,15.541c2.074,5.457-0.162,11.637-4.907,15.036c-21.086,15.107-90.637,63.878-122.733,73.429
				c-2.631,0.783-5.134-1.598-4.542-4.278c1.647-7.456,6.975-22.345,24.139-44.142l-1.54,3.115
				c-1.949,3.942,2.344,8.046,6.173,5.884C579.416,1486.729,623.141,1460.205,644.218,1434.261z"/>
			
				<linearGradient id="SVGID_00000025436129225946493100000009844423320329979316_" gradientUnits="userSpaceOnUse" x1="19413.2266" y1="1231.3583" x2="20539.6133" y2="526.2231" gradientTransform="matrix(-1 0 0 1 19947.5723 0)">
				<stop  offset="0" style="stop-color:#FEBBBA"/>
				<stop  offset="1" style="stop-color:#FF928E"/>
			</linearGradient>
			<path style="fill:url(#SVGID_00000025436129225946493100000009844423320329979316_);" d="M633.884,1580.579
				c0.35-0.225,31.679-75.706,32.029-75.93c28.725-174.889,98.808-324.668,119.476-364.08c3.478-6.629,10.075-11.002,17.535-11.639
				l58.483-4.994l97.031,131.204l-125.153-41.973c26.852,74.164-93.176,217.431-133.826,269.057
				c-4.125,5.239-2.978,12.86,2.509,16.65l23.899,16.508c-25.501,39.364-58.385,68.052-98.391,86.444L633.884,1580.579z"/>
			
				<linearGradient id="SVGID_00000073001185197576414130000005695913951879979659_" gradientUnits="userSpaceOnUse" x1="-6889.5078" y1="-7540.4453" x2="-6914.7783" y2="-7152.9653" gradientTransform="matrix(0.7895 -0.6137 0.6137 0.7895 10669.8828 3191.1018)">
				<stop  offset="0" style="stop-color:#4F52FF"/>
				<stop  offset="1" style="stop-color:#4042E2"/>
			</linearGradient>
			<path style="fill:url(#SVGID_00000073001185197576414130000005695913951879979659_);" d="M712.207,1506.631
				c0,0,13.377,1.459,19.932,11.751c3.135,4.924,2.197,11.429-1.763,15.719c-17.592,19.061-75.834,80.898-105.333,96.748
				c-2.418,1.3-5.351-0.525-5.314-3.27c0.104-7.635,2.308-23.295,14.706-48.114l-0.877,3.362c-1.111,4.255,3.923,7.406,7.236,4.514
				C659.365,1571.127,696.818,1536.303,712.207,1506.631z"/>
			<g>
				
					<linearGradient id="SVGID_00000073681144585377272400000008815057273539678857_" gradientUnits="userSpaceOnUse" x1="11305.0088" y1="948.5595" x2="11034.2471" y2="1245.2838" gradientTransform="matrix(-1 0 0 1 12115.873 0)">
					<stop  offset="0" style="stop-color:#4F52FF"/>
					<stop  offset="1" style="stop-color:#4042E2"/>
				</linearGradient>
				<path style="fill:url(#SVGID_00000073681144585377272400000008815057273539678857_);" d="M1135.158,1096.304
					c0,0,52.905,78.69,57.246,114.585c4.341,35.895-14.629,48.308-70.003,52.886c-164.784,13.622-246.016-35.764-246.016-35.764
					c-11.273-71.872-19.293-90.157-113.438-129.236c0,0,119.076,9.454,143.041,0.154
					C929.953,1089.628,1135.158,1096.304,1135.158,1096.304z"/>
			</g>
			<g>
				
					<linearGradient id="SVGID_00000046320565920017253270000001852582076645874048_" gradientUnits="userSpaceOnUse" x1="-12019.0449" y1="-1800.4038" x2="-11938.0918" y2="-1597.3348" gradientTransform="matrix(0.9446 -0.3283 0.3283 0.9446 12812.0361 -1699.1722)">
					<stop  offset="0" style="stop-color:#09005D"/>
					<stop  offset="1" style="stop-color:#1A0F91"/>
				</linearGradient>
				<path style="fill:url(#SVGID_00000046320565920017253270000001852582076645874048_);" d="M924.189,655.434
					c0,0,36.848-43.597,76.022,9.893c7.095,9.688,34.346,1.695,44.336,21.973c5.158,10.47,16.3,16.418,27.777,14.301
					c28.586-5.273,75.311-5.716,98.38,39.08c17.609,34.193,4.013,54.204-13.589,65.612c-12.928,8.38-17.543,25.391-9.725,38.666
					c7.499,12.733,8.908,29.976-10.453,50.727c-43.389,46.503-129.279-29.511-129.279-29.511l-68.196-161.148L924.189,655.434z"/>
				
					<linearGradient id="SVGID_00000106840046365945107420000000463636229837978773_" gradientUnits="userSpaceOnUse" x1="1532.8162" y1="175.8352" x2="1357.6665" y2="452.0325">
					<stop  offset="0" style="stop-color:#FF928E"/>
					<stop  offset="1" style="stop-color:#FE7062"/>
				</linearGradient>
				<path style="fill:url(#SVGID_00000106840046365945107420000000463636229837978773_);" d="M992.081,1085.887
					c0,0-61.608-58.664-91.935-97.52c-16.393-21.004-21.541-48.654-13.96-74.196c13.846-46.647,38.452-94.96,40.696-102.479
					c3.44-11.525,72.519-11.046,72.519-11.046s135.934,88.223,189.344,237.666l-59.982,18.674c0,0-35.493-59.545-70.561-97.403
					c0,0,60.682,80.162,62.818,112.978L992.081,1085.887z"/>
				
					<linearGradient id="SVGID_00000072998687944983863600000011578073600355941038_" gradientUnits="userSpaceOnUse" x1="-10472.0156" y1="1076.1842" x2="-10144.0752" y2="1076.1842" gradientTransform="matrix(1 0 0 1 11551.1094 0)">
					<stop  offset="0" style="stop-color:#FEBBBA"/>
					<stop  offset="1" style="stop-color:#FF928E"/>
				</linearGradient>
				<path style="fill:url(#SVGID_00000072998687944983863600000011578073600355941038_);" d="M874.697,1109.037l46.293-50.367
					l53.463,14.396c0,0,62.33,9.657,98.003,0c35.674-9.656,35.674-9.656,35.674-9.656l80.615-25.098l12.661,35.782
					c3.215,9.085-0.016,19.171-7.871,24.752c-6.974,4.956-15.15,10.402-20.36,12.682c-10.616,4.644-244.555,1.468-244.555,1.468
					L874.697,1109.037z"/>
				
					<linearGradient id="SVGID_00000095309458736080175240000011847005195102451080_" gradientUnits="userSpaceOnUse" x1="-12298.4932" y1="-67.5415" x2="-12282.4629" y2="-184.8207" gradientTransform="matrix(0.9974 -0.0717 0.0717 0.9974 13216.9805 105.0094)">
					<stop  offset="0" style="stop-color:#FEBBBA"/>
					<stop  offset="1" style="stop-color:#FF928E"/>
				</linearGradient>
				<path style="fill:url(#SVGID_00000095309458736080175240000011847005195102451080_);" d="M951.924,717.589l46.428,86.335
					c-3.065,18.846-50.532,19.378-57.864,8.124c-0.747-1.145-1.173-2.47-1.456-3.807l-27.774-57.687
					c-1.193-5.625,14.229-24.579,19.304-27.281l18.454-9.823C956.122,709.669,926.471,709.371,951.924,717.589z"/>
				<g>
					
						<linearGradient id="SVGID_00000181801190537980899950000005822584684914980785_" gradientUnits="userSpaceOnUse" x1="-9678.6172" y1="-5440.5342" x2="-9527.6748" y2="-5709.1602" gradientTransform="matrix(0.5458 -0.8379 0.8379 0.5458 10797.9961 -4320.769)">
						<stop  offset="0" style="stop-color:#FEBBBA"/>
						<stop  offset="1" style="stop-color:#FF928E"/>
					</linearGradient>
					<path style="fill:url(#SVGID_00000181801190537980899950000005822584684914980785_);" d="M857.961,697.328
						c0,0-5.241,29.169,17.685,66.255c22.926,37.086,45.755,35.412,57.354,22.186c11.598-13.226,25.492-35.254,19.17-72.244
						C945.849,676.535,865.88,660.131,857.961,697.328z"/>
					
						<linearGradient id="SVGID_00000034059863737020854600000002655957196208263563_" gradientUnits="userSpaceOnUse" x1="-9646.1582" y1="-5674.4658" x2="-9570.6885" y2="-5485.1499" gradientTransform="matrix(0.5458 -0.8379 0.8379 0.5458 10797.9961 -4320.769)">
						<stop  offset="0" style="stop-color:#09005D"/>
						<stop  offset="1" style="stop-color:#1A0F91"/>
					</linearGradient>
					<path style="fill:url(#SVGID_00000034059863737020854600000002655957196208263563_);" d="M924.417,717.544
						c0,0-37.123-48.76-65.624-6.254l0.481,14.684c0,0-37.062-1.733-33.043-35.892c4.019-34.161,34.277-57.496,76.225-45.825
						c41.947,11.671,66.458,24.963,71.195,54.086c4.737,29.124-19.044,24.365-19.044,24.365s-9.083-20.096-20.053-21.467
						c-10.969-1.373-7.005,14.523-7.005,14.523L924.417,717.544z"/>
					
						<linearGradient id="SVGID_00000042715296811235092230000002163237355839549877_" gradientUnits="userSpaceOnUse" x1="-9646.4863" y1="-5422.4829" x2="-9495.5459" y2="-5691.1069" gradientTransform="matrix(0.5458 -0.8379 0.8379 0.5458 10797.9961 -4320.769)">
						<stop  offset="0" style="stop-color:#FEBBBA"/>
						<stop  offset="1" style="stop-color:#FF928E"/>
					</linearGradient>
					<path style="fill:url(#SVGID_00000042715296811235092230000002163237355839549877_);" d="M932.936,716.244
						c0,0-19.23-24.954-1.726-30.133c17.504-5.179,16.851,24.451,15.71,35.474L932.936,716.244z"/>
				</g>
			</g>
			<g>
				
					<linearGradient id="SVGID_00000170238348321231759130000010064064140609359787_" gradientUnits="userSpaceOnUse" x1="-10488.3057" y1="610.0392" x2="-10659.8613" y2="657.0581" gradientTransform="matrix(0.9988 -0.0494 0.0494 0.9988 11509.6406 -55.0328)">
					<stop  offset="0" style="stop-color:#09005D"/>
					<stop  offset="1" style="stop-color:#1A0F91"/>
				</linearGradient>
				<path style="fill:url(#SVGID_00000170238348321231759130000010064064140609359787_);" d="M1027.931,1128.971
					c-0.162,0.008-0.326,0.012-0.49,0.011l-212.926-0.233c-5.263-0.004-9.526-4.276-9.521-9.54c0.005-5.265,4.292-9.615,9.542-9.52
					l212.926,0.232c5.263,0.005,9.526,4.276,9.52,9.54C1036.977,1124.561,1032.967,1128.722,1027.931,1128.971z"/>
				
					<linearGradient id="SVGID_00000150795456113030209260000003114604555522366351_" gradientUnits="userSpaceOnUse" x1="618.8002" y1="1044.7823" x2="2161.761" y2="914.9659">
					<stop  offset="0" style="stop-color:#09005D"/>
					<stop  offset="1" style="stop-color:#1A0F91"/>
				</linearGradient>
				<path style="fill:url(#SVGID_00000150795456113030209260000003114604555522366351_);" d="M623.105,935.647h177.326
					c13.081,0,24.988,7.549,30.568,19.381l81.978,173.829H692.607c-8.43,0-16.004-5.151-19.103-12.991l-63.57-160.853
					C606.262,945.719,613.111,935.647,623.105,935.647z"/>
				<path style="fill:#7D97F4;" d="M748.033,1024.775c3.843,11.939,1.004,23.534-6.341,25.897
					c-7.345,2.364-16.414-5.398-20.256-17.337c-3.843-11.938-1.004-23.533,6.341-25.897
					C735.121,1005.074,744.19,1012.836,748.033,1024.775z"/>
			</g>
		</g>
		<g>
			<g>
				<path style="fill:#91B3FA;" d="M1650.625,3054.898c0,0-127.577,140.65-234.125,81.207
					c-85.631-47.774,36.027-35.291,139.224-57.864c8.099-1.771,5.978-13.876-2.24-12.787
					c-80.742,10.705-203.942,19.454-225.341-22.646c-32.304-63.555-0.977-42.943,97.339-33.763
					c98.316,9.181,117.26-15.096,53.084-30.216c-64.176-15.12-166.267,18.323-190.049-12.775s-36.781-92.829-46.261-119.376
					c-9.479-26.548,122.383-66.383,158.032-31.531c35.649,34.852,64.598,112.641,106.904,126.844
					c42.306,14.203-3.203-54.609-31.261-90.126c-28.058-35.517-39.181-61.914,16.876-53.442
					c56.057,8.472,85.689,76.887,91.599,127.957c5.909,51.069,25.653,79.633,24.759,54.367
					c-0.894-25.265-10.062-102.747-27.979-126.042C1563.27,2831.409,1691.172,2859.838,1650.625,3054.898z"/>
				<path style="opacity:0.53;fill:#FFFFFF;" d="M1640.241,3056.24c-0.561,0.213-1.218,0.119-1.702-0.306
					c-109.503-95.8-293.164-165.431-295.006-166.122c-0.868-0.326-1.305-1.291-0.98-2.161c0.325-0.863,1.292-1.304,2.16-0.979
					c1.848,0.692,186.068,70.531,296.036,166.74c0.696,0.608,0.767,1.667,0.157,2.365
					C1640.719,3055.991,1640.489,3056.146,1640.241,3056.24z"/>
			</g>
			<g>
				<path style="fill:#7D97F4;" d="M1727.646,3144.728c0,0-232.986,7.687-271.605-137.028
					c-31.038-116.306,61.891,1.613,169.951,73.306c8.481,5.626,17.341-6.584,9.359-12.899
					c-78.415-62.036-191.379-163.175-172.545-218.006c28.433-82.774,37.024-37.548,112.922,56.97
					c75.899,94.518,113.484,90.479,71.989,20.985c-41.495-69.494-158.196-130.927-151.097-178.46
					c7.099-47.533,50.414-111.73,65.721-142.767c15.306-31.037,163.074,51.182,162.805,112.383
					c-0.27,61.202-44.118,153.179-20.497,202.609c23.621,49.43,45.407-49.475,52.749-104.554
					c7.342-55.078,21.11-87.435,61.532-30.778c40.421,56.657,5.421,141.229-34.553,190.066
					c-39.974,48.838-48.288,90.647-26.778,68.274c21.51-22.372,81.984-96.648,87.216-132.345
					C1850.046,2876.789,1934.25,3013.834,1727.646,3144.728z"/>
				<path style="opacity:0.53;fill:#FFFFFF;" d="M1717.593,3136.72c-0.667-0.313-1.146-0.972-1.184-1.762
					c-9.093-178.379-104.608-399.78-105.572-401.994c-0.454-1.043,0.023-2.254,1.067-2.71c1.038-0.451,2.254,0.025,2.708,1.068
					c0.968,2.221,96.779,224.292,105.908,403.43c0.059,1.133-0.815,2.1-1.95,2.159
					C1718.219,3136.93,1717.888,3136.859,1717.593,3136.72z"/>
			</g>
		</g>
		<g>
			<g>
				<path style="fill:#BDD0FB;" d="M786.416,709.126c16.301-20.415,25.689-44.382,25.689-70.02
					c0-74.55-79.377-134.984-177.292-134.984S457.52,564.557,457.52,639.106S536.897,774.09,634.812,774.09
					c36.698,0,70.791-8.489,99.077-23.029c18.697,3.19,47.72,8.549,63.035,11.399c4.509,0.839,8.204-3.571,6.59-7.864
					L786.416,709.126z"/>
			</g>
			<g>
				
					<linearGradient id="SVGID_00000018235632494261192860000009327794587069904572_" gradientUnits="userSpaceOnUse" x1="-2022.0818" y1="783.3218" x2="-1868.8484" y2="226.3774" gradientTransform="matrix(-1 0 0 1 -1336.1816 0)">
					<stop  offset="0" style="stop-color:#E1473D"/>
					<stop  offset="1" style="stop-color:#E9605A"/>
				</linearGradient>
				<path style="fill:url(#SVGID_00000018235632494261192860000009327794587069904572_);" d="M641.453,665.012l-12.511-0.557
					c-3.446-0.153-6.283-3.556-6.462-7.505l-4.478-98.836c-0.092-2.03,0.545-3.75,1.762-5.21c1.218-1.461,2.911-2.021,4.684-2.001
					l21.546,0.245c1.797,0.021,3.516,0.577,4.756,2.08c1.24,1.503,1.889,3.363,1.796,5.411l-4.557,99.467
					C647.805,662.071,644.931,665.167,641.453,665.012z"/>
				
					<linearGradient id="SVGID_00000149367634518855219010000007861280477680348839_" gradientUnits="userSpaceOnUse" x1="-1995.4879" y1="790.6387" x2="-1842.2548" y2="233.695" gradientTransform="matrix(-1 0 0 1 -1336.1816 0)">
					<stop  offset="0" style="stop-color:#E1473D"/>
					<stop  offset="1" style="stop-color:#E9605A"/>
				</linearGradient>
				<path style="fill:url(#SVGID_00000149367634518855219010000007861280477680348839_);" d="M622.243,688.883
					c3.071-3.252,7.416-4.74,13.045-4.457c5.853,0.294,10.323,2.196,13.401,5.708c3.084,3.519,4.628,8.563,4.628,15.129
					c0,6.331-1.578,11.142-4.73,14.428c-3.146,3.281-7.583,4.742-13.299,4.389c-5.562-0.344-9.89-2.374-12.995-6.089
					c-3.098-3.708-4.646-8.615-4.646-14.725C617.648,696.922,619.178,692.13,622.243,688.883z"/>
			</g>
		</g>
		<g>
			
				<ellipse transform="matrix(0.7071 -0.7071 0.7071 0.7071 -555.4448 1808.0773)" style="fill:#FFFFFF;" cx="1904.82" cy="1574.52" rx="829.81" ry="829.809"/>
			
				<linearGradient id="SVGID_00000159445747892374457630000018167486634186606990_" gradientUnits="userSpaceOnUse" x1="2847.7588" y1="60.1013" x2="2403.1472" y2="774.1747">
				<stop  offset="0" style="stop-color:#E1473D"/>
				<stop  offset="1" style="stop-color:#E9605A"/>
			</linearGradient>
			
				<circle style="fill:url(#SVGID_00000159445747892374457630000018167486634186606990_);" cx="1904.819" cy="1574.52" r="802.217"/>
			
				<ellipse transform="matrix(0.7071 -0.7071 0.7071 0.7071 -572.9232 1800.8375)" style="fill:#FFFFFF;" cx="1887.342" cy="1591.998" rx="678.978" ry="678.978"/>
			<path style="opacity:0.7;fill:#FFFFFF;" d="M2566.325,1249.75c1.283,0,2.587-0.289,3.813-0.911
				c4.18-2.111,5.856-7.209,3.744-11.382c-128.26-254.101-384.628-411.953-669.063-411.953c-45.36,0-90.821,4.089-135.114,12.167
				c-4.605,0.835-7.658,5.247-6.82,9.856c0.837,4.611,5.236,7.689,9.859,6.812c43.294-7.888,87.727-11.883,132.075-11.883
				c278,0,528.572,154.285,653.935,402.633C2560.242,1248.044,2563.226,1249.75,2566.325,1249.75z"/>
			<g>
				<defs>
					<path id="SVGID_00000031893263040253696530000007823991213138246073_" d="M1208.362,1450.492
						c-34.975,329.768,104.416,606.46,350.219,737.339c94.677,50.412,205.786,87.486,327.845,85.329
						c225.881-3.991,399.255-100.211,525.45-249.252c130.24-153.818,174.972-355.043,154.444-573.417
						c-42.411-451.152-303.99-820.485-678.977-820.485C1512.351,630.007,1256.154,999.878,1208.362,1450.492z"/>
				</defs>
				<clipPath id="SVGID_00000127010275145439628550000003528550884275488397_">
					<use xlink:href="#SVGID_00000031893263040253696530000007823991213138246073_"  style="overflow:visible;"/>
				</clipPath>
				<g style="clip-path:url(#SVGID_00000127010275145439628550000003528550884275488397_);">
					<g>
						<path style="fill:#FFFFFF;" d="M2255.861,2323.309l-98.209-1029.051c-235.858-87.167-533.249,10.255-533.249,10.255
							l-45.926,1018.796H2255.861z"/>
						
							<linearGradient id="SVGID_00000047026562446562078910000001847735082959698366_" gradientUnits="userSpaceOnUse" x1="1867.7537" y1="1492.6055" x2="1902.4009" y2="1196.1813">
							<stop  offset="0" style="stop-color:#FEBBBA"/>
							<stop  offset="1" style="stop-color:#FF928E"/>
						</linearGradient>
						<path style="fill:url(#SVGID_00000047026562446562078910000001847735082959698366_);" d="M1788.482,1119.927l-4.428,146.073
							c-0.437,14.444,8.521,27.46,22.151,32.268c37.347,13.173,114.666,33.203,187.939,6.967
							c14.781-5.293,23.679-20.424,21.395-35.959l-21.963-149.349H1788.482z"/>
						
							<linearGradient id="SVGID_00000155838872473239439090000001019196924643004848_" gradientUnits="userSpaceOnUse" x1="1097.5103" y1="1499.6028" x2="2044.0879" y2="3052.8503">
							<stop  offset="0" style="stop-color:#09005D"/>
							<stop  offset="1" style="stop-color:#1A0F91"/>
						</linearGradient>
						<path style="fill:url(#SVGID_00000155838872473239439090000001019196924643004848_);" d="M1830.092,2323.309
							c25.988-25.984,40.426-44.594,40.426-44.594l-30.762-87.165c0,0-251.244,143.565-333.282,71.781
							c-82.038-71.781,56.404-492.226,56.404-492.226l-199.972-364.046c0,0-167.846,559.596-111.406,865.388
							c5.433,29.434,31.093,50.862,61.025,50.862H1830.092z"/>
						
							<linearGradient id="SVGID_00000099659478928488588140000013651433358267220890_" gradientUnits="userSpaceOnUse" x1="1744.653" y1="1290.9235" x2="1899.9668" y2="1290.9235">
							<stop  offset="0" style="stop-color:#DAE3FE"/>
							<stop  offset="1" style="stop-color:#E9EFFD"/>
						</linearGradient>
						<polygon style="fill:url(#SVGID_00000099659478928488588140000013651433358267220890_);" points="1785.808,1208.086 
							1899.967,1317.534 1817.53,1373.761 1744.653,1275.67 						"/>
						
							<linearGradient id="SVGID_00000038406943964723830890000002536812898213951888_" gradientUnits="userSpaceOnUse" x1="1890.2816" y1="1290.9235" x2="2045.5946" y2="1290.9235">
							<stop  offset="0" style="stop-color:#DAE3FE"/>
							<stop  offset="1" style="stop-color:#E9EFFD"/>
						</linearGradient>
						<polygon style="fill:url(#SVGID_00000038406943964723830890000002536812898213951888_);" points="2004.44,1208.086 
							1890.282,1317.534 1972.719,1373.761 2045.595,1275.67 						"/>
						<g>
							
								<linearGradient id="SVGID_00000152969996730142504140000008255146770744794788_" gradientUnits="userSpaceOnUse" x1="1900.0438" y1="1160.8083" x2="1886.7913" y2="778.8961">
								<stop  offset="0" style="stop-color:#FEBBBA"/>
								<stop  offset="1" style="stop-color:#FF928E"/>
							</linearGradient>
							<path style="fill:url(#SVGID_00000152969996730142504140000008255146770744794788_);" d="M1713.777,853.304
								c0,0,25.637,261.497,82.039,328.152c0,0,169.204,15.383,230.732-20.509c0,0,43.584-130.748,38.455-305.079
								c0,0,8.402-158.639-166.639-171.768C1693.268,668.718,1713.777,853.304,1713.777,853.304z"/>
							
								<linearGradient id="SVGID_00000016054417120714073690000015839126443611114933_" gradientUnits="userSpaceOnUse" x1="2079.042" y1="1154.5984" x2="2065.7893" y2="772.6846">
								<stop  offset="0" style="stop-color:#FEBBBA"/>
								<stop  offset="1" style="stop-color:#FF928E"/>
							</linearGradient>
							<path style="fill:url(#SVGID_00000016054417120714073690000015839126443611114933_);" d="M2047.057,935.341
								c0,0,15.383-46.146,41.018-46.146c25.637,0-5.126,123.057-41.018,123.057V935.341z"/>
							
								<linearGradient id="SVGID_00000149356376376998890330000001488478818779724417_" gradientUnits="userSpaceOnUse" x1="1721.9963" y1="1166.9878" x2="1708.7438" y2="785.0758">
								<stop  offset="0" style="stop-color:#FEBBBA"/>
								<stop  offset="1" style="stop-color:#FF928E"/>
							</linearGradient>
							<path style="fill:url(#SVGID_00000149356376376998890330000001488478818779724417_);" d="M1737.11,947.461
								c0,0-21.464-43.651-46.868-40.193c-25.402,3.456,21.676,121.241,57.239,116.402L1737.11,947.461z"/>
							
								<linearGradient id="SVGID_00000137841970811359455730000008884836371090812072_" gradientUnits="userSpaceOnUse" x1="1605.5997" y1="466.114" x2="2083.1892" y2="1408.3866">
								<stop  offset="0" style="stop-color:#09005D"/>
								<stop  offset="1" style="stop-color:#1A0F91"/>
							</linearGradient>
							<path style="fill:url(#SVGID_00000137841970811359455730000008884836371090812072_);" d="M1731.479,991.268
								c0,0,5.749,156.199,74.45,235.421c6.305,7.271,15.423,11.5,25.035,11.962c35.067,1.686,124.71,4.701,175.255-5.37
								c12.582-2.507,22.937-11.376,27.077-23.518c12.426-36.43,33.999-93.882,26.579-225.709l-41.235,98.259
								c-30.547,81.2-47.128-17.367-61.313-16.22h-92.293c-9.727,0.785-20.51,61.528-56.552,43.731L1731.479,991.268z"/>
							
								<linearGradient id="SVGID_00000167381825800888304950000009917889248661651124_" gradientUnits="userSpaceOnUse" x1="1693.8823" y1="421.3696" x2="2171.4719" y2="1363.6425">
								<stop  offset="0" style="stop-color:#09005D"/>
								<stop  offset="1" style="stop-color:#1A0F91"/>
							</linearGradient>
							<path style="fill:url(#SVGID_00000167381825800888304950000009917889248661651124_);" d="M1995.784,791.776
								c0,0-130.635,134.357-272.976,133.834c0,0-80.814-215.872,78.135-251.764c158.948-35.891,164.076,10.254,164.076,10.254
								s182.927-45.852,100.247,217.96L1995.784,791.776z"/>
						</g>
						
							<linearGradient id="SVGID_00000028303882588702711740000018388305547317575306_" gradientUnits="userSpaceOnUse" x1="1780.6296" y1="1090.9276" x2="2717.8391" y2="2628.8025">
							<stop  offset="0" style="stop-color:#09005D"/>
							<stop  offset="1" style="stop-color:#1A0F91"/>
						</linearGradient>
						<path style="fill:url(#SVGID_00000028303882588702711740000018388305547317575306_);" d="M2039.1,2323.309h476.038
							c21.423,0,41.353-11.044,52.702-29.213l0,0c205.1-328.151-87.163-866.527-87.163-866.527l-153.824,405.063
							c0,0,133.314,133.312,61.533,343.535c-71.786,210.222-364.044,46.148-364.044,46.148l10.253,97.419
							C2034.594,2319.734,2036.177,2321.035,2039.1,2323.309z"/>
						<polygon style="fill:#7D97F4;" points="1883.09,1326.887 1840.499,1355.872 1870.52,1414.254 1919.468,1414.254 
							1952.185,1359.979 1896.435,1321.843 						"/>
						<polygon style="fill:#7D97F4;" points="1870.52,1414.254 1837.293,1967.417 1921.793,2120.216 2006.846,1972.934 
							1919.468,1414.254 						"/>
						
							<linearGradient id="SVGID_00000111158713733435404510000004307255832779201459_" gradientUnits="userSpaceOnUse" x1="1367.2925" y1="1335.1935" x2="2313.8672" y2="2888.436">
							<stop  offset="0" style="stop-color:#09005D"/>
							<stop  offset="1" style="stop-color:#1A0F91"/>
						</linearGradient>
						<path style="fill:url(#SVGID_00000111158713733435404510000004307255832779201459_);" d="M1512.831,1770.621
							c36.373,88.206,53.746,183.087,50.982,278.456l-7.949,274.232h385.535l-19.605-390.664l-177.141-656.926
							c-164.077,25.638-381.746,131.339-381.746,131.339L1512.831,1770.621z"/>
						
							<linearGradient id="SVGID_00000029741381515629310080000018288472093073150605_" gradientUnits="userSpaceOnUse" x1="1735.3186" y1="1110.9116" x2="2681.8967" y2="2664.1599">
							<stop  offset="0" style="stop-color:#09005D"/>
							<stop  offset="1" style="stop-color:#1A0F91"/>
						</linearGradient>
						<path style="fill:url(#SVGID_00000029741381515629310080000018288472093073150605_);" d="M2294.58,2323.309l11.763-227.513
							c0-116.478,19.874-232.104,58.76-341.901l115.574-326.327c-148.691-133.31-441.504-162.396-441.504-162.396l-117.379,667.473
							v390.664H2294.58z"/>
						
							<linearGradient id="SVGID_00000000205558764172985340000004576954234929240501_" gradientUnits="userSpaceOnUse" x1="1765.8329" y1="-14.0868" x2="1765.8329" y2="460.8155">
							<stop  offset="0" style="stop-color:#4F52FF"/>
							<stop  offset="1" style="stop-color:#4042E2"/>
						</linearGradient>
						<path style="fill:url(#SVGID_00000000205558764172985340000004576954234929240501_);" d="M1889.315,1909.661
							c-0.793,0-1.583-0.333-2.145-0.981l-157.836-182.027c-0.344-0.393-0.571-0.881-0.657-1.402l-15.909-97.568l-58.415-11.752
							c-1.284-0.26-2.223-1.358-2.275-2.667l-12.562-308.874c-0.064-1.569,1.153-2.888,2.719-2.955
							c1.627-0.06,2.888,1.153,2.952,2.722l12.47,306.647l58.158,11.702c1.159,0.233,2.051,1.159,2.242,2.328l16.095,98.71
							l157.309,181.422c1.025,1.181,0.897,2.977-0.286,4.003C1890.637,1909.433,1889.975,1909.661,1889.315,1909.661z"/>
						
							<linearGradient id="SVGID_00000049910534503081640240000012338246477691148432_" gradientUnits="userSpaceOnUse" x1="2065.7322" y1="-14.0881" x2="2065.7322" y2="460.8142">
							<stop  offset="0" style="stop-color:#4F52FF"/>
							<stop  offset="1" style="stop-color:#4042E2"/>
						</linearGradient>
						<path style="fill:url(#SVGID_00000049910534503081640240000012338246477691148432_);" d="M1942.251,1909.661
							c-0.66,0-1.322-0.229-1.86-0.699c-1.183-1.035-1.311-2.845-0.285-4.037l157.309-182.965l16.094-99.549
							c0.191-1.179,1.085-2.113,2.242-2.348l58.158-11.802l12.469-309.254c0.061-1.582,1.248-2.801,2.952-2.745
							c1.566,0.068,2.782,1.398,2.719,2.98l-12.561,311.5c-0.052,1.32-0.993,2.427-2.275,2.69l-58.416,11.852l-15.909,98.397
							c-0.086,0.526-0.313,1.018-0.656,1.414l-157.836,183.574C1943.833,1909.325,1943.043,1909.661,1942.251,1909.661z"/>
					</g>
				</g>
			</g>
			
				<linearGradient id="SVGID_00000077321049393775090910000012048528259100971418_" gradientUnits="userSpaceOnUse" x1="2843.8818" y1="57.6878" x2="2399.2703" y2="771.7609">
				<stop  offset="0" style="stop-color:#E1473D"/>
				<stop  offset="1" style="stop-color:#E9605A"/>
			</linearGradient>
			<polygon style="fill:url(#SVGID_00000077321049393775090910000012048528259100971418_);" points="1499.054,2195.938 
				1405.28,2120.343 2302.407,980.307 2384.93,1042.62 			"/>
		</g>
		<g>
			
				<linearGradient id="SVGID_00000155143763017174680260000014019317430600002185_" gradientUnits="userSpaceOnUse" x1="-4069.178" y1="2282.0293" x2="-3878.1985" y2="2282.0293" gradientTransform="matrix(-1 0 0 1 -1336.1816 0)">
				<stop  offset="0" style="stop-color:#FEBBBA"/>
				<stop  offset="1" style="stop-color:#FF928E"/>
			</linearGradient>
			<path style="fill:url(#SVGID_00000155143763017174680260000014019317430600002185_);" d="M2732.996,2197.745
				c0,0-207.296,82.73-189.948,147.782c17.348,65.052,130.104-43.368,130.104-43.368L2732.996,2197.745z"/>
			<g>
				
					<linearGradient id="SVGID_00000080906134762473618400000009372604100043348924_" gradientUnits="userSpaceOnUse" x1="-3939.9448" y1="2202.4128" x2="-3918.261" y2="2202.4128" gradientTransform="matrix(-1 0 0 1 -1336.1816 0)">
					<stop  offset="0" style="stop-color:#4F52FF"/>
					<stop  offset="1" style="stop-color:#4042E2"/>
				</linearGradient>
				<polygon style="fill:url(#SVGID_00000080906134762473618400000009372604100043348924_);" points="2582.08,2497.316 
					2603.763,2497.316 2603.763,1907.51 2582.08,1907.51 				"/>
				<path style="fill:#BDD0FB;" d="M2846,1536.005l-37.988,376.431c-2.655,26.308-25.629,45.812-52.019,44.162l-325.695-20.356
					c-24.775-1.549-44.516-21.311-46.037-46.087l-24.162-393.498c-1.854-30.193,23.721-54.891,53.831-51.986l387.846,37.424
					C2828.905,1484.712,2848.736,1508.887,2846,1536.005z"/>
			</g>
			
				<linearGradient id="SVGID_00000176004092727068490440000000660702732732188577_" gradientUnits="userSpaceOnUse" x1="2770.8152" y1="2221.3433" x2="2979.4634" y2="2221.3433">
				<stop  offset="0" style="stop-color:#09005D"/>
				<stop  offset="1" style="stop-color:#1A0F91"/>
			</linearGradient>
			<path style="fill:url(#SVGID_00000176004092727068490440000000660702732732188577_);" d="M2813.501,1971.065
				c0,0,17.605,7.792,37.281,43.113c9.718,17.444,22.832,55.885,25.624,91.198c1.442,18.232,10.055,32.834,21.648,35.616
				c28.872,6.933,73.368,30.418,80.488,108.944c5.434,59.938-14.071,82.666-34.543,90.532
				c-15.036,5.777-25.027,28.686-21.986,52.464c2.917,22.808-1.433,49.174-26.657,70.022
				c-56.524,46.721-112.972-110.685-112.972-110.685l-11.569-274.84L2813.501,1971.065z"/>
			
				<linearGradient id="SVGID_00000003797164591813225340000002678137679653020086_" gradientUnits="userSpaceOnUse" x1="2563.1958" y1="3220.3823" x2="2632.9148" y2="3220.3823" gradientTransform="matrix(1 0 0 1 503.3257 0)">
				<stop  offset="0" style="stop-color:#09005D"/>
				<stop  offset="1" style="stop-color:#1A0F91"/>
			</linearGradient>
			<path style="fill:url(#SVGID_00000003797164591813225340000002678137679653020086_);" d="M3066.604,3203.662l3.966,32.6
				c0.752,6.185,5.622,11.074,11.812,11.782c10.451,1.194,27.221,2.418,43.63,0.683c7.202-0.762,11.878-8.055,9.684-14.956
				c-4-12.586-11.318-31.478-21.869-42.595h-36.164C3070.977,3191.176,3065.797,3197.024,3066.604,3203.662z"/>
			
				<linearGradient id="SVGID_00000093864748000645093550000016078063486187511723_" gradientUnits="userSpaceOnUse" x1="2268.5959" y1="3495.3167" x2="2368.927" y2="2322.6953" gradientTransform="matrix(1 0 0 1 503.3257 0)">
				<stop  offset="0" style="stop-color:#FEBBBA"/>
				<stop  offset="1" style="stop-color:#FF928E"/>
			</linearGradient>
			<path style="fill:url(#SVGID_00000093864748000645093550000016078063486187511723_);" d="M2783.357,2821.77l-6.104,35.907
				c0,0,20.441,207.047,24.077,289.865c0.57,12.985-2.789,25.816-9.604,36.883l-35.542,57.718l90.331-53.303l1.799-11.023
				l-14.788-20.332l19.369-231.944c1.137-13.627-1.674-27.291-8.098-39.361l-18.685-35.102L2783.357,2821.77z"/>
			
				<linearGradient id="SVGID_00000080927771115487108330000016446297139231867008_" gradientUnits="userSpaceOnUse" x1="2239.2859" y1="3207.6531" x2="2352.0972" y2="3207.6531" gradientTransform="matrix(1 0 0 1 503.3257 0)">
				<stop  offset="0" style="stop-color:#09005D"/>
				<stop  offset="1" style="stop-color:#1A0F91"/>
			</linearGradient>
			<path style="fill:url(#SVGID_00000080927771115487108330000016446297139231867008_);" d="M2750.234,3250.505h28.827
				c5.396,0,10.485-2.477,13.775-6.753c8.987-11.677,27.606-34.459,36.509-35.054c11.985-0.8,10.452,41.806,10.452,41.806h6.718
				l8.51-52.944c2.141-13.322-4.484-26.518-16.446-32.76l0,0c0,0-2.739,20.261-17.595,29.223
				c-14.854,8.962-60.451,41.056-60.451,41.056s-5.584-0.796-11.716,0.312C2739.72,3237.037,2740.992,3250.505,2750.234,3250.505z"
				/>
			
				<linearGradient id="SVGID_00000031205506573637836010000008871487210086908032_" gradientUnits="userSpaceOnUse" x1="2470.4185" y1="3512.7654" x2="2570.7759" y2="2339.8357" gradientTransform="matrix(1 0 0 1 503.3257 0)">
				<stop  offset="0" style="stop-color:#FEBBBA"/>
				<stop  offset="1" style="stop-color:#FF928E"/>
			</linearGradient>
			<path style="fill:url(#SVGID_00000031205506573637836010000008871487210086908032_);" d="M2907.083,2838.825
				c0,0,119.747,227.15,138.783,279.011c19.035,51.862,25.704,95.127,25.959,99.224c0.399,6.402,8.362,12.542,30.31,12.542
				c11.327,0,16.875-4.541,19.591-8.936c2.318-3.749,2.437-8.441,0.484-12.393c-6.927-14.018-28.909-58.818-37.051-79.137
				c-9.72-24.26-30.628-134.203-42.096-172.428c-11.467-38.226-24.428-79.69-74.363-117.884
				C2968.7,2838.825,2934.42,2805.25,2907.083,2838.825z"/>
			
				<linearGradient id="SVGID_00000140010496409238677840000013190587090469859471_" gradientUnits="userSpaceOnUse" x1="3101.6572" y1="1683.4846" x2="2966.926" y2="1946.2101">
				<stop  offset="0" style="stop-color:#FF928E"/>
				<stop  offset="1" style="stop-color:#FE7062"/>
			</linearGradient>
			<path style="fill:url(#SVGID_00000140010496409238677840000013190587090469859471_);" d="M2831.435,2466.627
				c-30.89-130.891,49.884-194.825,49.884-194.825c-4.337-52.042-141.859-79.059-141.859-79.059s-85.843,62.76-75.66,111.882
				c5.969,28.791,60.34,172.453,60.34,172.453S2774.416,2500.874,2831.435,2466.627z"/>
			
				<linearGradient id="SVGID_00000113315587062314968440000002164113043972614024_" gradientUnits="userSpaceOnUse" x1="3484.9233" y1="1764.8517" x2="3235.6714" y2="2115.1519">
				<stop  offset="0" style="stop-color:#4F52FF"/>
				<stop  offset="1" style="stop-color:#4042E2"/>
			</linearGradient>
			<path style="fill:url(#SVGID_00000113315587062314968440000002164113043972614024_);" d="M2899.922,2531.428
				c-12.571-37.871-68.487-64.801-68.487-64.801c-57.019,34.247-107.295,10.452-107.295,10.452s-11.276,43.097-3.494,83.148
				c7.782,40.051,56.607,297.449,56.607,297.449c76.931,15.588,195.248-15.683,195.248-15.683
				C2923.5,2754.995,2912.492,2569.299,2899.922,2531.428z"/>
			
				<linearGradient id="SVGID_00000182510672027572723880000003707314666955177875_" gradientUnits="userSpaceOnUse" x1="2257.5928" y1="2339.4639" x2="2276.4397" y2="2201.5845" gradientTransform="matrix(1 0 0 1 503.3257 0)">
				<stop  offset="0" style="stop-color:#FEBBBA"/>
				<stop  offset="1" style="stop-color:#FF928E"/>
			</linearGradient>
			<path style="fill:url(#SVGID_00000182510672027572723880000003707314666955177875_);" d="M2795.58,2106.246l25.115,112.807
				c2.405,9.936-6.654,8.31-16.699,6.416c-16.451-3.101-37.655-9.489-44.744-22.292c-0.721-1.302-1.081-2.774-1.285-4.25
				l-10.79-78.222c-0.857-6.205,2.499-12.229,8.226-14.768l20.821-9.232C2784.24,2093.149,2793.518,2097.723,2795.58,2106.246z"/>
			<g>
				
					<linearGradient id="SVGID_00000157994479775159067580000001834537205700842941_" gradientUnits="userSpaceOnUse" x1="2210.022" y1="2161.6958" x2="2374.4624" y2="1869.0472" gradientTransform="matrix(1 0 0 1 503.3257 0)">
					<stop  offset="0" style="stop-color:#FEBBBA"/>
					<stop  offset="1" style="stop-color:#FF928E"/>
				</linearGradient>
				<path style="fill:url(#SVGID_00000157994479775159067580000001834537205700842941_);" d="M2766.114,1998.839
					c0,0-29.743,12.559-49.967,55.539c-20.224,42.979-5.121,62.825,13.849,65.549c18.97,2.724,47.34,2.309,77.348-25.456
					C2837.352,2066.708,2804.778,1983.952,2766.114,1998.839z"/>
				
					<linearGradient id="SVGID_00000101790599398187240140000007643349104353166977_" gradientUnits="userSpaceOnUse" x1="2734.5732" y1="2036.3629" x2="2851.8203" y2="2036.3629">
					<stop  offset="0" style="stop-color:#09005D"/>
					<stop  offset="1" style="stop-color:#1A0F91"/>
				</linearGradient>
				<path style="fill:url(#SVGID_00000101790599398187240140000007643349104353166977_);" d="M2787.173,2071.526
					c0,0,22.44-62.881-33.31-63.625l-13.118,9.169c0,0-20.456-34.864,13.118-51.506c33.574-16.642,72.868-2.896,87.156,42.337
					s16.727,75.511-7.043,97.151c-23.77,21.642-33.566-2.896-33.566-2.896s12.944-20.241,7.675-31.071
					c-5.269-10.829-17.424,2.241-17.424,2.241L2787.173,2071.526z"/>
				
					<linearGradient id="SVGID_00000038411996167001963150000010706064397262953089_" gradientUnits="userSpaceOnUse" x1="2239.4119" y1="2183.6096" x2="2403.8516" y2="1890.9623" gradientTransform="matrix(1 0 0 1 503.3257 0)">
					<stop  offset="0" style="stop-color:#FEBBBA"/>
					<stop  offset="1" style="stop-color:#FF928E"/>
				</linearGradient>
				<path style="fill:url(#SVGID_00000038411996167001963150000010706064397262953089_);" d="M2787.811,2080.775
					c0,0,11.346-32.392,26.482-19.491c15.135,12.899-12.301,29.92-23.043,35.434L2787.811,2080.775z"/>
			</g>
			
				<linearGradient id="SVGID_00000076599823950704394230000017053209917700296106_" gradientUnits="userSpaceOnUse" x1="-4220.0957" y1="2338.874" x2="-3918.261" y2="2338.874" gradientTransform="matrix(-1 0 0 1 -1336.1816 0)">
				<stop  offset="0" style="stop-color:#FEBBBA"/>
				<stop  offset="1" style="stop-color:#FF928E"/>
			</linearGradient>
			<path style="fill:url(#SVGID_00000076599823950704394230000017053209917700296106_);" d="M2881.319,2271.802
				c0,0,26.021,134.44-86.736,169.135c-112.757,34.694-191.456-117.575-191.456-117.575s-21.047-21.203-21.047-47.224
				c0-26.021,21.684-44.469,21.684-44.469s34.695,48.806,34.695,74.826c0,26.021,108.42,99.746,147.451,78.063
				c37.935-21.075,38.483-64.206,36.386-84.453c-0.824-7.966,1.595-15.901,6.867-21.929
				C2840.836,2264.825,2866.347,2250.841,2881.319,2271.802z"/>
			
				<linearGradient id="SVGID_00000151510202245684456220000007844884136418530198_" gradientUnits="userSpaceOnUse" x1="-3944.9685" y1="2353.1597" x2="-3910.033" y2="2353.1597" gradientTransform="matrix(-1 0 0 1 -1336.1816 0)">
				<stop  offset="0" style="stop-color:#FEBBBA"/>
				<stop  offset="1" style="stop-color:#FF928E"/>
			</linearGradient>
			<path style="fill:url(#SVGID_00000151510202245684456220000007844884136418530198_);" d="M2573.868,2330.315l3.243,45.413
				c0.398,5.567,6.403,8.96,11.31,6.301c4.483-2.43,9.913-7.041,15.342-15.715c11.943-19.08,1.959-42.573-23.242-42.944
				C2576.694,2323.313,2573.595,2326.497,2573.868,2330.315z"/>
			<g>
				
					<linearGradient id="SVGID_00000087391510032863694120000000657584775051556781_" gradientUnits="userSpaceOnUse" x1="-4027.2947" y1="1960.9283" x2="-3764.583" y2="1006.0723" gradientTransform="matrix(-1 0 0 1 -1336.1816 0)">
					<stop  offset="0" style="stop-color:#E1473D"/>
					<stop  offset="1" style="stop-color:#E9605A"/>
				</linearGradient>
				<path style="fill:url(#SVGID_00000087391510032863694120000000657584775051556781_);" d="M2614.911,1758.092l-21.45-0.954
					c-5.907-0.263-10.771-6.096-11.079-12.868l-7.678-169.45c-0.158-3.48,0.934-6.43,3.02-8.932c2.088-2.505,4.991-3.465,8.03-3.43
					l36.941,0.421c3.08,0.035,6.029,0.99,8.153,3.566c2.126,2.577,3.239,5.766,3.078,9.277l-7.813,170.532
					C2625.801,1753.049,2620.874,1758.357,2614.911,1758.092z"/>
				
					<linearGradient id="SVGID_00000158004444974196639470000012830174946530092938_" gradientUnits="userSpaceOnUse" x1="-3981.7007" y1="1973.4728" x2="-3718.9893" y2="1018.6187" gradientTransform="matrix(-1 0 0 1 -1336.1816 0)">
					<stop  offset="0" style="stop-color:#E1473D"/>
					<stop  offset="1" style="stop-color:#E9605A"/>
				</linearGradient>
				<path style="fill:url(#SVGID_00000158004444974196639470000012830174946530092938_);" d="M2581.975,1799.018
					c5.265-5.576,12.714-8.126,22.365-7.641c10.034,0.504,17.699,3.764,22.977,9.786c5.288,6.033,7.934,14.681,7.934,25.938
					c0,10.854-2.705,19.102-8.11,24.737c-5.394,5.625-13,8.13-22.801,7.524c-9.535-0.589-16.956-4.071-22.278-10.44
					c-5.312-6.356-7.965-14.769-7.965-25.246C2574.097,1812.8,2576.721,1804.584,2581.975,1799.018z"/>
			</g>
		</g>
		<g>
			
				<linearGradient id="SVGID_00000183950807639287708220000012541581353247413435_" gradientUnits="userSpaceOnUse" x1="1076.2452" y1="1975.0892" x2="838.7944" y2="2748.0681">
				<stop  offset="0" style="stop-color:#E1473D"/>
				<stop  offset="1" style="stop-color:#E9605A"/>
			</linearGradient>
			<path style="fill:url(#SVGID_00000183950807639287708220000012541581353247413435_);" d="M882.386,2263.059
				c0,0,124.992,152.228,170.975,115.546c45.982-36.682-78.16-236.636-78.16-236.636L882.386,2263.059z"/>
			
				<linearGradient id="SVGID_00000042728510185467398250000008695432589582479787_" gradientUnits="userSpaceOnUse" x1="787.2783" y1="3215.7947" x2="887.5031" y2="3215.7947">
				<stop  offset="0" style="stop-color:#09005D"/>
				<stop  offset="1" style="stop-color:#1A0F91"/>
			</linearGradient>
			<path style="fill:url(#SVGID_00000042728510185467398250000008695432589582479787_);" d="M887.502,3251.481
				c0.011-0.746-0.038-1.502-0.23-2.264c-11.288-44.753-67.315-72.628-67.315-72.628l-22.202,1.74
				c-12.765,39.445-11.124,63.636-9.075,74.412c0.057,0.302,0.149,0.589,0.229,0.882
				C807.223,3255.259,844.919,3256.328,887.502,3251.481z"/>
			
				<linearGradient id="SVGID_00000102532681651460031010000017837400194751156409_" gradientUnits="userSpaceOnUse" x1="815.1496" y1="3101.6929" x2="796.0048" y2="3268.7751">
				<stop  offset="0" style="stop-color:#A22B25"/>
				<stop  offset="1" style="stop-color:#C0423C"/>
			</linearGradient>
			<path style="fill:url(#SVGID_00000102532681651460031010000017837400194751156409_);" d="M788.828,3145.261l9.403,45.266
				c0.689,3.317,3.238,5.801,6.325,6.091c3.779,0.354,9.158,0.563,14.568-0.232c4.851-0.713,8.229-5.642,7.369-10.933l-6.536-40.192
				H788.828z"/>
			
				<linearGradient id="SVGID_00000005977867105675591720000009169290599297220000_" gradientUnits="userSpaceOnUse" x1="939.8936" y1="3218.4604" x2="1084.166" y2="3218.4604">
				<stop  offset="0" style="stop-color:#09005D"/>
				<stop  offset="1" style="stop-color:#1A0F91"/>
			</linearGradient>
			<path style="fill:url(#SVGID_00000005977867105675591720000009169290599297220000_);" d="M1084.166,3249.508
				c-0.163-0.343-0.302-0.692-0.533-1.015c-11.89-16.613-42.172-49.694-102.01-64.042l-28.706-0.906c0,0-12.782,22.217-13.024,63.37
				c6.556,2.68,19.239,5.568,43.759,6.254C1021.556,3254.229,1066.514,3250.966,1084.166,3249.508z"/>
			
				<linearGradient id="SVGID_00000162347660697923203590000000545679774449704878_" gradientUnits="userSpaceOnUse" x1="971.097" y1="3119.562" x2="951.9524" y2="3286.6436">
				<stop  offset="0" style="stop-color:#A22B25"/>
				<stop  offset="1" style="stop-color:#C0423C"/>
			</linearGradient>
			<path style="fill:url(#SVGID_00000162347660697923203590000000545679774449704878_);" d="M947.594,3140.04
				c0.319,2.14,4.254,34.66,5.777,47.27c0.362,2.997,2.532,5.315,5.269,5.642c4.888,0.584,12.798,1.115,19.718-0.303
				c3.733-0.765,6.436-4.351,6.436-8.521v-51.049L947.594,3140.04z"/>
			
				<linearGradient id="SVGID_00000168091130408696284090000005699122238487051939_" gradientUnits="userSpaceOnUse" x1="1198.5685" y1="2355.5295" x2="586.2524" y2="3305.6763">
				<stop  offset="0" style="stop-color:#4F52FF"/>
				<stop  offset="1" style="stop-color:#4042E2"/>
			</linearGradient>
			<path style="fill:url(#SVGID_00000168091130408696284090000005699122238487051939_);" d="M924.564,2546.552
				c0,0,69.237,263.124,67.985,594.24c-0.023,6.037-4.262,11.247-10.169,12.491c-8.705,1.833-21.502,4.01-32.095,3.713
				c-5.655-0.159-10.383-4.352-11.334-9.929c-9.708-56.931-65.42-377.656-97.164-429.724c0,0-20.884,285.651-14.209,433.849
				c0.166,3.685-2.532,6.882-6.196,7.305c-5.559,0.642-14.451,1.13-25.767-0.072c-4.296-0.456-7.762-3.703-8.375-7.979
				c-6.915-48.183-46.716-334.984-45.024-541.585c0.095-11.65,30.811-62.309,30.811-62.309H924.564z"/>
			
				<linearGradient id="SVGID_00000069357335139424300120000010363634623721062055_" gradientUnits="userSpaceOnUse" x1="1146.1893" y1="1825.2904" x2="898.6343" y2="2219.3584">
				<stop  offset="0" style="stop-color:#FF928E"/>
				<stop  offset="1" style="stop-color:#FE7062"/>
			</linearGradient>
			<path style="fill:url(#SVGID_00000069357335139424300120000010363634623721062055_);" d="M972.252,2143.26
				c-95.284-13.78-199.951-1.136-250.751,5.263c-16.448,2.072-31.492,10.182-42.331,22.725
				c-42.985,49.745-137.31,185.937-26.286,323.172c14.208-7.887,34.397-20.533,48.109-35.169
				c-12.283-34.626-13.289-78.873,12.453-133.133c0.88,4.301,1.967,8.559,3.289,12.748
				c35.479,112.402,37.372,205.938,37.293,227.495c-0.012,2.928,1.746,5.564,4.464,6.652c46.695,18.712,136.581,7.575,166.754,3.079
				c5.532-0.824,9.255-5.975,8.49-11.516c-10.614-76.897,25.423-189.347,54.081-263.157
				C999.142,2272.251,978.182,2151.437,972.252,2143.26z"/>
			
				<linearGradient id="SVGID_00000180362919558067155490000004783684478830180524_" gradientUnits="userSpaceOnUse" x1="668.4962" y1="2349.8582" x2="743.1164" y2="2523.3503" gradientTransform="matrix(0.9957 0.0924 -0.0924 0.9957 355.6342 -417.7972)">
				<stop  offset="0" style="stop-color:#A22B25"/>
				<stop  offset="1" style="stop-color:#C0423C"/>
			</linearGradient>
			<path style="fill:url(#SVGID_00000180362919558067155490000004783684478830180524_);" d="M820.381,2031.489l-13.155,108.746
				c-0.597,4.934,2.438,9.598,7.208,10.992c14.279,4.175,44.846,10.498,72.779-0.998c5.301-2.182,8.229-7.916,7.012-13.517
				l-16.632-76.54L820.381,2031.489z"/>
			<g>
				
					<linearGradient id="SVGID_00000157275920217880687050000006423783915525083306_" gradientUnits="userSpaceOnUse" x1="-1926.6151" y1="734.0966" x2="-2056.2947" y2="905.6522" gradientTransform="matrix(0.8771 -0.4803 0.4803 0.8771 2220.958 397.849)">
					<stop  offset="0" style="stop-color:#A22B25"/>
					<stop  offset="1" style="stop-color:#C0423C"/>
				</linearGradient>
				<path style="fill:url(#SVGID_00000157275920217880687050000006423783915525083306_);" d="M905.672,1954.198
					c0.821,1.5,18.427,113.158,18.427,113.158l-63.969,8.698l-32.41-103.35C827.72,1972.704,891.925,1929.093,905.672,1954.198z"/>
				
					<linearGradient id="SVGID_00000132083551567509156220000000270211182686161844_" gradientUnits="userSpaceOnUse" x1="931.7991" y1="1882.5859" x2="756.6492" y2="2257.5859">
					<stop  offset="0" style="stop-color:#09005D"/>
					<stop  offset="1" style="stop-color:#1A0F91"/>
				</linearGradient>
				<path style="fill:url(#SVGID_00000132083551567509156220000000270211182686161844_);" d="M851.425,1982.987
					c-1.817,2.23-2.501,5.157-1.857,7.961l12.616,54.936c0.192,0.833,0.484,1.626,0.899,2.374
					c2.288,4.123,10.627,16.664,23.246,7.391c10.755-7.904,20.749-15.019,29.446-16.464c5.079-0.844,9.839,2.699,10.622,7.788
					c1.613,10.482,4.44,31.7,4.304,50.903c-0.034,4.813-3.81,8.764-8.611,9.102c-12.67,0.892-37.464,1.895-57.979-1.784
					c-3.37-0.604-6.12-3.004-7.184-6.258c-4.681-14.321-17.965-54.406-23.456-65.144c-5.102-9.977-19.956-11.675-26.821-11.914
					c-2.606-0.091-5.036-1.246-6.744-3.217c-5.121-5.909-13.127-19.08,2.305-31.946c3.837-3.199,4.291-8.975,1.172-12.877
					c-5.589-6.992-10.448-18.284,1.531-30.111c12.127-11.973,25.838-8.94,34.53-4.888c3.846,1.793,8.595,1.016,11.346-2.215
					c1.223-1.437,3.035-2.412,5.716-2.104c5.058,0.582,9.583-2.744,10.198-7.798c1.055-8.665,5.7-18.856,21.033-21.774
					c28.122-5.352,42.062,22.817,41.504,42.585c-0.557,19.768-31.376,23.838-48.845,20.506
					C867.564,1965.591,856.431,1976.842,851.425,1982.987z"/>
				
					<linearGradient id="SVGID_00000157992000260721878190000018117419331754210194_" gradientUnits="userSpaceOnUse" x1="-654.2061" y1="3927.3735" x2="-579.5909" y2="4100.854" gradientTransform="matrix(0.8771 -0.4803 0.4803 0.8771 2220.958 397.849)">
					<stop  offset="0" style="stop-color:#A22B25"/>
					<stop  offset="1" style="stop-color:#C0423C"/>
				</linearGradient>
				<path style="fill:url(#SVGID_00000157992000260721878190000018117419331754210194_);" d="M838.333,2054.04
					c0,0-0.507-34.487-14.455-37.766c-13.948-3.279-29.036,6.769-17.157,27.45C821.497,2069.448,838.333,2054.04,838.333,2054.04z"
					/>
			</g>
			
				<linearGradient id="SVGID_00000010288940805785491860000006466011121525818508_" gradientUnits="userSpaceOnUse" x1="696.3062" y1="2289.1091" x2="836.0895" y2="1827.656">
				<stop  offset="0" style="stop-color:#E1473D"/>
				<stop  offset="1" style="stop-color:#E9605A"/>
			</linearGradient>
			<path style="fill:url(#SVGID_00000010288940805785491860000006466011121525818508_);" d="M708.736,2317.712
				c-18.82-51.505-11.993-113.699-11.921-114.322l5.186,0.593c-0.069,0.611-6.751,61.612,11.641,111.937L708.736,2317.712z"/>
			
				<linearGradient id="SVGID_00000090977252204387012240000001502117686757156776_" gradientUnits="userSpaceOnUse" x1="855.1671" y1="2610.6548" x2="803.8237" y2="2702.0286">
				<stop  offset="0" style="stop-color:#09005D"/>
				<stop  offset="1" style="stop-color:#1A0F91"/>
			</linearGradient>
			<path style="fill:url(#SVGID_00000090977252204387012240000001502117686757156776_);" d="M839.243,2710.637
				c-1.16,0-2.22-0.779-2.524-1.956c-5.741-22.145-48.736-46.48-49.169-46.724c-1.257-0.705-1.706-2.296-0.999-3.554
				c0.706-1.257,2.289-1.707,3.554-1c1.848,1.037,45.37,25.673,51.667,49.967c0.362,1.396-0.477,2.821-1.871,3.182
				C839.682,2710.61,839.46,2710.637,839.243,2710.637z"/>
			
				<linearGradient id="SVGID_00000020371443110032267870000007516631739815902343_" gradientUnits="userSpaceOnUse" x1="652.884" y1="2528.8433" x2="816.3662" y2="2528.8433">
				<stop  offset="0" style="stop-color:#A22B25"/>
				<stop  offset="1" style="stop-color:#C0423C"/>
			</linearGradient>
			<path style="fill:url(#SVGID_00000020371443110032267870000007516631739815902343_);" d="M700.992,2459.252
				c-13.712,14.636-33.901,27.282-48.108,35.169c21.217,26.226,49.926,52.489,87.932,78.195l4.597,10.316
				c3.939,8.839,12.547,14.701,22.213,15.162c53.118,2.531,67.817-8.735,18.919-42.839
				C786.545,2555.254,724.009,2524.135,700.992,2459.252z"/>
			
				<linearGradient id="SVGID_00000157285582217379612680000002033933586647799736_" gradientUnits="userSpaceOnUse" x1="1037.5563" y1="5632.4556" x2="1141.3444" y2="5632.4556" gradientTransform="matrix(0.5644 0.8255 -0.8255 0.5644 5099.5723 -1768.4667)">
				<stop  offset="0" style="stop-color:#A22B25"/>
				<stop  offset="1" style="stop-color:#C0423C"/>
			</linearGradient>
			<path style="fill:url(#SVGID_00000157285582217379612680000002033933586647799736_);" d="M1091.522,2228.744
				c0,0-67.026,69.676-82.511,94.953c-15.485,25.276,1.752,71.31,36.929,60.623c35.178-10.687,76.129-131.584,76.129-131.584
				L1091.522,2228.744z"/>
			<g>
				
					<linearGradient id="SVGID_00000071555940339166882120000007117854169539855534_" gradientUnits="userSpaceOnUse" x1="967.1711" y1="2342.9841" x2="1095.8756" y2="2170.3323">
					<stop  offset="0" style="stop-color:#09005D"/>
					<stop  offset="1" style="stop-color:#1A0F91"/>
				</linearGradient>
				<path style="fill:url(#SVGID_00000071555940339166882120000007117854169539855534_);" d="M979.332,2129.785
					c0,0,58.901,155.34,77.51,187.655c21.601,37.511,84.688,13.608,81.548-17.785c-3.139-31.393-76.846-161.151-76.846-161.151
					L979.332,2129.785z"/>
				
					<linearGradient id="SVGID_00000165914239672445029640000008888066997118304937_" gradientUnits="userSpaceOnUse" x1="1403.074" y1="1843.1589" x2="940.4977" y2="2642.5623">
					<stop  offset="0" style="stop-color:#4F52FF"/>
					<stop  offset="1" style="stop-color:#4042E2"/>
				</linearGradient>
				<polygon style="fill:url(#SVGID_00000165914239672445029640000008888066997118304937_);" points="1058.917,2016.627 
					1425.006,1889.699 1421.161,2233.188 1048.913,2150.13 				"/>
				<ellipse style="fill:#91B3FA;" cx="1425.351" cy="2062.44" rx="35.967" ry="176.522"/>
				
					<linearGradient id="SVGID_00000088119133480094266850000007035706382681599643_" gradientUnits="userSpaceOnUse" x1="1526.1675" y1="1663.7678" x2="1319.58" y2="2501.3447">
					<stop  offset="0" style="stop-color:#4F52FF"/>
					<stop  offset="1" style="stop-color:#4042E2"/>
				</linearGradient>
				<path style="fill:url(#SVGID_00000088119133480094266850000007035706382681599643_);" d="M1428.081,2226.89
					c-3.251-3.306-10.332-16.06-16.404-49.041c-5.868-31.873-9.099-73.213-9.099-116.406c0-43.193,3.231-84.533,9.099-116.406
					c6.071-32.981,13.153-45.735,16.404-49.041c3.251,3.307,10.333,16.06,16.404,49.041c5.868,31.872,9.099,73.213,9.099,116.406
					c0,43.193-3.231,84.533-9.099,116.406C1438.414,2210.83,1431.332,2223.584,1428.081,2226.89z"/>
				<g>
					<defs>
						<path id="SVGID_00000122694882428851651290000001142822996606578364_" d="M1428.081,2226.89
							c-3.251-3.306-10.332-16.06-16.404-49.041c-5.868-31.873-9.099-73.213-9.099-116.406c0-43.193,3.231-84.533,9.099-116.406
							c6.071-32.981,13.153-45.735,16.404-49.041c3.251,3.307,10.333,16.06,16.404,49.041c5.868,31.872,52.17,73.213,52.17,116.406
							c0,43.193-46.302,84.533-52.17,116.406C1438.414,2210.83,1431.332,2223.584,1428.081,2226.89z"/>
					</defs>
					<clipPath id="SVGID_00000165204058293095858890000001418971504953852344_">
						<use xlink:href="#SVGID_00000122694882428851651290000001142822996606578364_"  style="overflow:visible;"/>
					</clipPath>
					
						<linearGradient id="SVGID_00000150069443707460082470000009588144995156373380_" gradientUnits="userSpaceOnUse" x1="1505.0353" y1="2055.5957" x2="1249.7052" y2="2070.2458">
						<stop  offset="0" style="stop-color:#09005D"/>
						<stop  offset="1" style="stop-color:#1A0F91"/>
					</linearGradient>
					
						<path style="clip-path:url(#SVGID_00000165204058293095858890000001418971504953852344_);fill:url(#SVGID_00000150069443707460082470000009588144995156373380_);" d="
						M1474.181,2060.129c0,29.993-16.157,54.307-48.136,54.307s-57.903-24.314-57.903-54.307c0-29.993,25.924-54.307,57.903-54.307
						S1474.181,2030.136,1474.181,2060.129z"/>
				</g>
				
					<linearGradient id="SVGID_00000073703338480106856770000005293455965454684567_" gradientUnits="userSpaceOnUse" x1="1021.3708" y1="2146.3118" x2="1011.9532" y2="1909.3065">
					<stop  offset="0" style="stop-color:#09005D"/>
					<stop  offset="1" style="stop-color:#1A0F91"/>
				</linearGradient>
				<path style="fill:url(#SVGID_00000073703338480106856770000005293455965454684567_);" d="M999.873,2009.244
					c17.221-2,41.917-2.72,68.617,3.395c-8.797,45.953-7.469,93.85,2.705,143.445l-75.31,0c-12.007,0-22.245-8.722-24.118-20.582
					c-3.753-23.773-8.342-63.73-3.449-95.822C970.773,2023.576,983.69,2011.123,999.873,2009.244z"/>
				<path style="fill:#91B3FA;" d="M1045.07,2045.313h-58.675c-2.283,0-4.379-1.246-5.47-3.251
					c-1.091-2.005-0.998-4.441,0.243-6.357c0.712-1.105,2.191-1.418,3.296-0.705c1.105,0.714,1.42,2.19,0.705,3.296
					c-0.424,0.656-0.18,1.26-0.056,1.488c0.124,0.23,0.498,0.762,1.282,0.762h58.675c0.805,0,1.46-0.655,1.46-1.458v-4.174
					c0-0.805-0.655-1.46-1.46-1.46h-59.111c-1.316,0-2.383-1.068-2.383-2.383c0-1.316,1.068-2.383,2.383-2.383h59.111
					c3.434,0,6.227,2.793,6.227,6.227v4.174C1051.297,2042.52,1048.504,2045.313,1045.07,2045.313z"/>
				<path style="fill:#91B3FA;" d="M1039.838,2071.299h-58.675c-2.283,0-4.379-1.244-5.468-3.249
					c-1.091-2.005-0.999-4.441,0.241-6.357c0.715-1.108,2.191-1.423,3.296-0.708c1.106,0.716,1.421,2.191,0.707,3.296
					c-0.425,0.658-0.181,1.261-0.057,1.491c0.124,0.228,0.498,0.76,1.282,0.76h58.675c0.805,0,1.46-0.655,1.46-1.458v-4.174
					c0-0.805-0.655-1.46-1.46-1.46h-59.111c-1.316,0-2.383-1.068-2.383-2.383c0-1.316,1.067-2.383,2.383-2.383h59.111
					c3.434,0,6.227,2.793,6.227,6.227v4.174C1046.065,2068.506,1043.272,2071.299,1039.838,2071.299z"/>
				<path style="fill:#91B3FA;" d="M1112.113,2008.205c-1.01,0-1.949-0.647-2.272-1.66c-0.399-1.255,0.295-2.594,1.549-2.995
					l277.271-88.233c1.255-0.4,2.596,0.296,2.995,1.549c0.399,1.255-0.295,2.594-1.549,2.995l-277.271,88.233
					C1112.595,2008.169,1112.352,2008.205,1112.113,2008.205z"/>
				<path style="fill:#91B3FA;" d="M1074.619,2023.533c-0.94,0-1.831-0.559-2.208-1.482c-0.498-1.218,0.087-2.61,1.305-3.108
					l14.27-5.833c1.218-0.5,2.611,0.087,3.108,1.305c0.498,1.218-0.087,2.61-1.305,3.108l-14.27,5.833
					C1075.224,2023.477,1074.918,2023.533,1074.619,2023.533z"/>
				<path style="fill:#91B3FA;" d="M1045.07,2101.734h-58.675c-2.283,0-4.377-1.246-5.468-3.249
					c-1.091-2.006-0.999-4.442,0.241-6.359c0.715-1.108,2.193-1.421,3.296-0.708c1.106,0.715,1.421,2.191,0.707,3.296
					c-0.427,0.658-0.181,1.263-0.057,1.491c0.124,0.23,0.5,0.762,1.282,0.762h58.675c0.805,0,1.46-0.655,1.46-1.46v-4.174
					c0-0.804-0.655-1.458-1.46-1.458h-59.111c-1.316,0-2.383-1.068-2.383-2.384s1.068-2.384,2.383-2.384h59.111
					c3.434,0,6.227,2.793,6.227,6.226v4.174C1051.297,2098.941,1048.504,2101.734,1045.07,2101.734z"/>
				<path style="fill:#91B3FA;" d="M1050.564,2135.515h-58.676c-2.283,0-4.378-1.246-5.468-3.251
					c-1.091-2.005-0.999-4.441,0.24-6.357c0.715-1.108,2.191-1.423,3.296-0.708c1.106,0.715,1.421,2.191,0.708,3.296
					c-0.425,0.658-0.182,1.261-0.057,1.491c0.126,0.23,0.5,0.762,1.282,0.762h58.676c0.804,0,1.459-0.655,1.459-1.458v-4.176
					c0-0.804-0.655-1.458-1.459-1.458h-59.112c-1.316,0-2.383-1.068-2.383-2.384c0-1.316,1.068-2.383,2.383-2.383h59.112
					c3.432,0,6.225,2.793,6.225,6.225v4.176C1056.79,2132.722,1053.997,2135.515,1050.564,2135.515z"/>
				<path style="fill:#91B3FA;" d="M1102.973,2319.18c-2.767,0-5.563-0.299-8.353-0.906c-12.203-2.66-22.138-10.705-27.257-22.076
					l-46.878-104.147c-0.54-1.199-0.005-2.61,1.196-3.151c1.198-0.539,2.612-0.005,3.152,1.197l46.879,104.146
					c4.492,9.979,13.213,17.041,23.924,19.375c10.521,2.289,21.17-0.43,29.214-7.467c0.439-0.383,0.877-0.778,1.318-1.179
					c0.97-0.891,2.476-0.823,3.367,0.149c0.889,0.971,0.822,2.479-0.149,3.367c-0.469,0.43-0.934,0.846-1.4,1.252
					C1120.93,2315.913,1112.121,2319.18,1102.973,2319.18z"/>
				<path style="fill:#91B3FA;" d="M1015.729,2178.058c-0.909,0-1.778-0.523-2.176-1.406l-5.229-11.619
					c-0.54-1.199-0.005-2.612,1.196-3.152c1.196-0.54,2.613-0.005,3.152,1.197l5.229,11.619c0.54,1.199,0.005,2.611-1.196,3.151
					C1016.388,2177.991,1016.056,2178.058,1015.729,2178.058z"/>
				<path style="fill:#FFFFFF;" d="M1465.606,2059.439c-1.238,0-2.286-0.959-2.374-2.214c-1.023-14.422-5.994-25.16-14.774-31.914
					c-15.218-11.703-37.115-7.698-37.337-7.653c-1.294,0.244-2.542-0.6-2.788-1.893c-0.247-1.291,0.597-2.54,1.888-2.789
					c0.981-0.188,24.172-4.472,41.114,8.534c9.925,7.619,15.526,19.522,16.651,35.376c0.093,1.313-0.895,2.453-2.208,2.546
					C1465.721,2059.438,1465.664,2059.439,1465.606,2059.439z"/>
			</g>
			
				<linearGradient id="SVGID_00000037694286687845849450000010691078713484378288_" gradientUnits="userSpaceOnUse" x1="1053.0958" y1="2208.0574" x2="1116.0741" y2="2208.0574">
				<stop  offset="0" style="stop-color:#A22B25"/>
				<stop  offset="1" style="stop-color:#C0423C"/>
			</linearGradient>
			<path style="fill:url(#SVGID_00000037694286687845849450000010691078713484378288_);" d="M1066.144,2188.69
				c0,0,19.095-16.21,34.019,0c14.924,16.21,17.875,44.498,14.839,45.88C1111.966,2235.952,1019.691,2213.04,1066.144,2188.69z"/>
		</g>
	</g>
</g>
</svg>
